<svg id="Camada_1" data-name="Camada 1" xmlns="http://www.w3.org/2000/svg" viewBox="0 0 500 500"><defs><style>.cls-1,.cls-2{fill:#fff;}.cls-2{fill-rule:evenodd;opacity:0.15;}</style></defs><title>aurora-logo</title><path class="cls-1" d="M291.67,398.12a29.56,29.56,0,1,1,20.9-8.65A28.59,28.59,0,0,1,291.67,398.12Zm0-53.55a24,24,0,1,0,17,7A22.94,22.94,0,0,0,291.67,344.57Z"/><path class="cls-1" d="M167.08,400.2a29.56,29.56,0,0,1-29.55-29.55V343.88a2.78,2.78,0,0,1,5.56,0v26.78a24,24,0,0,0,41,17,22.91,22.91,0,0,0,7-17V343.88a2.78,2.78,0,0,1,5.56,0v26.78a29.55,29.55,0,0,1-29.56,29.55Z"/><path class="cls-1" d="M106.45,349.75a29.55,29.55,0,0,0-41.79,0,29.56,29.56,0,0,0,20.9,50.45H101.7a2.78,2.78,0,1,0,0-5.56H85.55a24,24,0,1,1,0-48,24,24,0,0,1,24,24v26.77a2.78,2.78,0,0,0,5.56,0V370.65A28.58,28.58,0,0,0,106.45,349.75Z"/><path class="cls-1" d="M435.34,349.75a29.55,29.55,0,1,0-20.89,50.45h16.14a2.78,2.78,0,1,0,0-5.56H414.45a24,24,0,1,1,24-24v26.77a2.78,2.78,0,0,0,5.56,0V370.65A28.58,28.58,0,0,0,435.34,349.75Z"/><path class="cls-1" d="M248.11,339a29.55,29.55,0,0,0-29.56,29.55v26.77a2.78,2.78,0,0,0,5.56,0V368.56a24,24,0,0,1,24-24h0a2.78,2.78,0,0,0,0-5.56Z"/><path class="cls-1" d="M370.81,339a29.55,29.55,0,0,0-29.56,29.55v26.77a2.78,2.78,0,1,0,5.56,0V368.56a24,24,0,0,1,24-24h0a2.78,2.78,0,0,0,0-5.56Z"/><path class="cls-1" d="M385.34,257.23a65.77,65.77,0,0,0-14.5-1.14c-11.29.46-22.24-.64-32.58-5.47-7.06-3.29-13.32-7.74-17.55-14.38-6.1-9.54-8.39-20.26-8.9-31.46-.65-14.05,1.39-27.81,4.77-41.35,3-11.93,7.29-23.35,15.74-32.74a67.43,67.43,0,0,0,5.59-7.36,7,7,0,0,0,.76-1.61,5.05,5.05,0,0,0,.81-3.3c-.33-1.21-1.69-2.07-2.83-2.58,3.53-3.43,3.18-7.28,1-11.3a6.36,6.36,0,0,1-.33-.83c-1.38-3.77-3-4.74-6.78-3.25-6.56,2.55-13,5.46-19.49,8.17-1.43.6-3,1.51-4.44,1.34-5.56-.65-10,1.24-14.06,4.08-4.49,2.81-9.28,6.38-12.25,10.65a24,24,0,0,0-4.91-1.48c-2.52-.36-4.17,1.42-4,4a37.61,37.61,0,0,0,.92,4,4.82,4.82,0,0,1,0,2.75c-3.52,6.68-7,13.4-10.81,19.91-3.32,5.66-6.82,11.36-13.25,14.09a45.76,45.76,0,0,0-17.59,13.45c-4.82,5.85-11.24,8.44-18.82,8.86-9.12.51-18.29,1-27.31,2.36-16.71,2.52-30.28,10.66-40.57,24.22-12.49,16.46-15.53,34.86-10.36,54.42,4.34,16.4,14.29,28.84,29.73,36.53.9.45,2,1.42,2.13,2.26.3,2.42,1.54,3.23,3.78,3.22,15.14,0,25.77,0,40.91-.08,6.15,0,9.94-.91,11-2.94h7.7c1.66,0,3-2.07,1.85-5.5-.74-2.21-2.07-5.11-4.62-6.85,11.94-3.4,29.51-6.54,35.61-10.13a42.62,42.62,0,0,1,8.35,19c.39,2.33,1.37,2.95,3.52,2.94,10.26-.06,20.53-.2,30.78.08,4.27.12,6.23-3.48,4.93-6.75a12.22,12.22,0,0,0-4.69-5.75,12.84,12.84,0,0,0-8.52-1.94c-.12-1.32-.42-3.71-.63-6,3.23,1.1,6,2.2,8.84,3,11.84,3.3,23.32,1.37,34.34-3.23,12.36-5.16,24.34-10.9,38.23-11.4,6.56-.23,11.84-4.44,13.74-11.48C391.89,261.19,390.47,258.18,385.34,257.23ZM228.53,308.5h-6.76a11,11,0,0,0-3.54-8.1c1.54-.52,5.37-1.72,5.37-1.72C227.55,300,230.41,307.68,228.53,308.5ZM303.95,299a6.29,6.29,0,0,1,2.46,7.35,2.93,2.93,0,0,1-2.14,1.52c-10.54.07-21.07,0-31.61,0-.17,0-.34-.17-.74-.39.27-8.17-3.41-16.64-7-21.65A62,62,0,0,0,276,275.46c4.81,3.63,10.54,7.38,15.47,12,1.79,1.68,1.71,5.4,2.33,8.22.05.24-1.4.88-2,1.16a63.13,63.13,0,0,0-7.07,4.23c3.61-1.28,7-2.68,10.42-3.64A10.22,10.22,0,0,1,303.95,299Zm85.6-35.44a13.58,13.58,0,0,1-10.78,12.05,46.86,46.86,0,0,1-9.45,1.11A60.43,60.43,0,0,0,349.15,280c-5.9,2.06-11.74,4.37-17.76,6-12.83,3.37-25.23,2.59-37.22-3.94-10.55-5.75-18.56-13.92-25.14-23.69-4.72-7-9-14.34-13.84-21.23-2.86-4.05-7.31-8.47-10.79-10.51,13.78,12.9,18.91,31.36,30.23,46.85-3.14,3.52-6.49,5.8-10.53,8.53-7.23,4.88-15.82,6.06-24.07,8.14-7.66,1.94-15.36,3.81-22.88,6.21-2.37.76-4.08,1-5.69-.34,3.54-6.38,7.41-12.53,10.48-19.06,6.64-14.11,9.84-28.77,4.41-44.08-3.48-9.8-9.57-17.79-19.87-20.76-13.28-3.83-25.5.34-37,6.94,4.21-1.33,8.34-2.94,12.54-4.33,7.5-2.49,15.23-3.41,22.87-1.15,12.92,3.83,19.11,14.46,21,27.72,1.08,7.48-.73,14.6-3,21.67a83.13,83.13,0,0,1-17.26,30.32c-1,1.13-2.74,1.73-4.24,2.28-3.57,1.3-6.33,2.06-10.47,4.49a107.5,107.5,0,0,1,10.56-2.56c5.55-.8,13.42,1.31,16.88,7.69,1.54,2.84,1,4.51-2.15,5.28a32.62,32.62,0,0,1-7.35,1c-12.45.11-24.9.1-37.35.08-4.2,0-4.59-.47-2.5-4.17,3.47-6.14,4.84-12.67,5.2-19.64a75.91,75.91,0,0,1,2-12.88c.53-2.31,1.88-4.44,2.86-6.65a27.59,27.59,0,0,0-6.42,15c-.53,4.53-.82,9.14-1.93,13.53-1.88,7.46-1.58,8-8.69,3.87-21.06-12.15-28.8-38.07-25-58.54,2.91-15.49,10.38-28.47,23.48-37.76a58.53,58.53,0,0,1,30.27-11.18,198.46,198.46,0,0,1,23-.45c8.73.43,15.41-2.74,20.07-9.85a28.44,28.44,0,0,1,14.23-11.24c6.89-2.62,11.57-7.54,14.66-14.08,2-4.13,3.78-8.33,5.7-12.48,1.68-3.63,3.42-7.24,5.29-11.17l7.66,11.05a17.92,17.92,0,0,0-1.65-3.94c-2.06-3.61-4.24-7.15-6.25-10.79-.93-1.68-1.15-3.81.7-4.78,1.35-.7,3.3-.41,5-.29a7.62,7.62,0,0,1,2.42,1.14l.37-1-1.16-.41a33.23,33.23,0,0,1,7.24-7.13l.87-.61c5.67-3.94,11.36-7.74,18.85-6.57a6.44,6.44,0,0,0,3.34-.91c3.41-1.6,6.65-3.61,10.16-4.92,3.18-1.18,6.59-3.21,10,.05.68.66,2.32.68,3.42.48,2.31-.43,3.2.85,3.34,2.66a7.91,7.91,0,0,1-.66,4.52c-3.69,5.88-8.76,10.45-14.32,14.58,5.72-1.7,9.24-6.82,14.58-9.6a2.12,2.12,0,0,1,.88,2,12.31,12.31,0,0,1-1.33,3.23c-1,1.44-1.87,2.87-2.88,4.23-3.15,4.22-7,8-9.64,12.51-7,11.79-11.35,24.67-14.21,38.08-3.39,15.86-4.47,31.51.66,47.37,5,15.52,15.13,25.2,30.46,30,9.31,2.89,18.79,2.75,28.38,2.38a85.45,85.45,0,0,1,15.4,1.13A4.59,4.59,0,0,1,389.54,263.57Z"/><path class="cls-1" d="M278.26,127.36c-2-.15-2.74.75-1.84,2.46,1.26,2.4,2.79,4.66,4.21,7l.62-.32c.2-1.55.36-3.11.63-4.65C282.34,129.19,281,127.58,278.26,127.36Z"/><path class="cls-1" d="M304.26,114c-.95,1.46-1.12,3.43-1.61,5.18l.9.32,4.65-6.34C306.62,113.48,304.73,113.29,304.26,114Z"/><path class="cls-2" d="M339.4,119.5a16.65,16.65,0,0,1-1.5,3.84,67.43,67.43,0,0,1-5.59,7.36c-8.45,9.39-12.76,20.81-15.74,32.74-3.38,13.54-5.42,27.3-4.77,41.35.52,11.2,2.81,21.91,8.9,31.46,4.24,6.63,10.49,11.08,17.55,14.38,10.34,4.83,21.29,5.93,32.58,5.47a65.74,65.74,0,0,1,14.5,1.14c5.13.95,6.55,4,5.18,9-1.91,7-7.19,11.25-13.74,11.48-13.9.49-25.88,6.24-38.23,11.4-11,4.6-22.5,6.53-34.34,3.23-2.84-.79-5.6-1.89-8.84-3,.22,2.29.51,4.68.63,6a12.84,12.84,0,0,1,8.52,1.94,12.22,12.22,0,0,1,4.69,5.75c1.3,3.27-.66,6.87-4.93,6.75-10.25-.29-20.52-.14-30.78-.08-2.15,0-3.12-.61-3.52-2.94a42.62,42.62,0,0,0-8.35-19C255.52,291.41,238,294.56,226,298c2.55,1.74,3.87,4.64,4.62,6.85,1.15,3.43-.19,5.5-1.85,5.5h-7.7c-1,2-4.81,2.94-11,2.94-15.14.09-25.77.06-40.91.08-2.23,0-3.48-.8-3.78-3.22-.1-.84-1.24-1.82-2.13-2.26-15.45-7.69-25.4-20.13-29.73-36.53-5.17-19.56-2.13-38,10.36-54.42,10.29-13.57,23.87-21.7,40.57-24.22,9-1.36,18.19-1.86,27.31-2.36,7.58-.42,14-3,18.82-8.86A45.76,45.76,0,0,1,248.21,168c6.43-2.73,9.93-8.43,13.25-14.09,3.82-6.51,7.3-13.23,10.81-19.91a4.82,4.82,0,0,0,0-2.75,37.63,37.63,0,0,1-.92-4c-.14-2.57,1.51-4.34,4-4,2.26.32,5,2,5.16,1.57s11.55-12.54,21-14.4c2.84-.56,6,.16,8.76-1.11,11.92-5.27,20.74-9.63,22.9-9.5,3.11.19,3.33,2.61,4.54,5,3.17,6.29.49,9.34-1.5,11.35C338.09,117.24,340,117.29,339.4,119.5Z"/></svg>