<svg id="Layer_1" data-name="Layer 1" xmlns="http://www.w3.org/2000/svg" viewBox="0 0 100 100"><defs><style>.cls-1,.cls-3{fill:none;stroke:#231f20;stroke-linecap:round;stroke-linejoin:round;}.cls-1{stroke-width:3px;}.cls-2{fill:#231f20;}.cls-3{stroke-width:2px;}</style></defs><title>auto-service</title><path class="cls-1" d="M71.38,62.85,84.38,34l-56-2.83M16.26,17.93l3.66,1.29L27.5,53.69l43.88,9.16,1.58,7H28.52"/><path class="cls-2" d="M30.47,75.33A2.67,2.67,0,1,1,27.8,78a2.67,2.67,0,0,1,2.67-2.67m0-2A4.67,4.67,0,1,0,35.14,78a4.67,4.67,0,0,0-4.67-4.67Z"/><path class="cls-2" d="M74.08,75.33A2.67,2.67,0,1,1,71.41,78a2.67,2.67,0,0,1,2.67-2.67m0-2A4.67,4.67,0,1,0,78.74,78a4.67,4.67,0,0,0-4.67-4.67Z"/><line class="cls-3" x1="51.79" y1="37.76" x2="49.66" y2="52.91"/><line class="cls-3" x1="36.23" y1="36.87" x2="36" y2="50.28"/><line class="cls-3" x1="67.31" y1="38.86" x2="62.83" y2="56.16"/></svg>