<svg id="Layer_1" data-name="Layer 1" xmlns="http://www.w3.org/2000/svg" viewBox="0 0 100 100"><defs><style>.cls-1{fill:#231f20;}.cls-2{fill:none;stroke:#231f20;stroke-miterlimit:10;stroke-width:3px;}</style></defs><title>calc</title><rect class="cls-1" x="25.02" y="25.53" width="49.97" height="13.09"/><path class="cls-1" d="M36,44.45H27a2,2,0,0,0-2,2v8.9a2,2,0,0,0,2,2h9a2,2,0,0,0,2-2v-8.9A2,2,0,0,0,36,44.45Zm-.9,7h-3v3.16H30.89V51.42h-3V50.28h3V47.15h1.19v3.13h3Z"/><path class="cls-1" d="M36,61.09H27a2,2,0,0,0-2,2V72a2,2,0,0,0,2,2h9a2,2,0,0,0,2-2V63A2,2,0,0,0,36,61.09Zm-2.29,9.46-2.23-2.23-2.13,2.13-.8-.8,2.13-2.13L28.44,65.3l.84-.84,2.21,2.21,2.13-2.13.8.8-2.13,2.13,2.23,2.23Z"/><path class="cls-1" d="M54.5,44.45h-9a2,2,0,0,0-2,2v8.9a2,2,0,0,0,2,2h9a2,2,0,0,0,2-2v-8.9A2,2,0,0,0,54.5,44.45Zm-1.39,7H46.89V50.24h6.22Z"/><path class="cls-1" d="M54.5,61.09h-9a2,2,0,0,0-2,2V72a2,2,0,0,0,2,2h9a2,2,0,0,0,2-2V63A2,2,0,0,0,54.5,61.09ZM49,71.46H47.78L51,63.54h1.22Z"/><path class="cls-1" d="M73,44.45H64a2,2,0,0,0-2,2V72a2,2,0,0,0,2,2h9a2,2,0,0,0,2-2V46.41A2,2,0,0,0,73,44.45Zm-.9,16.69h-7.2V60h7.2Zm0-2.78h-7.2V57.23h7.2Z"/><path class="cls-2" d="M77.6,17.62H22.4a2,2,0,0,0-2,2V80.37a2,2,0,0,0,2,2H77.6a2,2,0,0,0,2-2V19.64A2,2,0,0,0,77.6,17.62Z"/></svg>