<svg id="Layer_1" data-name="Layer 1" xmlns="http://www.w3.org/2000/svg" viewBox="0 0 100 100"><defs><style>.cls-1,.cls-3{fill:#fff;}.cls-2{fill:none;stroke:#fff;stroke-miterlimit:10;stroke-width:3px;}.cls-3{font-size:29.41px;font-family:Roboto-Bold, Roboto;font-weight:700;}</style></defs><title>calendar</title><path class="cls-1" d="M32.71,32.14h0a3,3,0,0,1-3-3V20.3a3,3,0,0,1,3-3h0a3,3,0,0,1,3,3v8.83A3,3,0,0,1,32.71,32.14Z"/><path class="cls-1" d="M67.94,32.14h0a3,3,0,0,1-3-3V20.3a3,3,0,0,1,3-3h0a3,3,0,0,1,3,3v8.83A3,3,0,0,1,67.94,32.14Z"/><path class="cls-2" d="M19.17,39.49V77.61a5,5,0,0,0,5,5H76.42a5,5,0,0,0,5-5V39.49"/><path class="cls-1" d="M77.94,22.84H72.61v6.51a4.67,4.67,0,0,1-9.34,0V22.84H37.38v6.51a4.67,4.67,0,0,1-9.34,0V22.84H22.71a5,5,0,0,0-5,5V39.49H82.94V27.84A5,5,0,0,0,77.94,22.84Z"/><text class="cls-3" transform="translate(41.89 69.64)">1</text></svg>