<svg id="Layer_1" data-name="Layer 1" xmlns="http://www.w3.org/2000/svg" viewBox="0 0 100 100"><defs><style>.cls-1{fill:#231f20;}.cls-2{fill:none;stroke:#231f20;stroke-linecap:round;stroke-linejoin:round;stroke-width:3px;}</style></defs><title>company</title><path class="cls-1" d="M46.92,68.29H53.7a2,2,0,0,1,2,2V82.61a0,0,0,0,1,0,0H44.92a0,0,0,0,1,0,0V70.29A2,2,0,0,1,46.92,68.29Z"/><rect class="cls-2" x="33.59" y="17.39" width="33.44" height="64.88"/><polyline class="cls-2" points="33.59 82.27 21.26 82.27 21.26 42.08 33.59 42.08"/><polyline class="cls-2" points="67.03 29.69 78.74 29.69 78.74 82.27 67.03 82.27"/><rect class="cls-1" x="37.76" y="57.82" width="10.79" height="6.65" rx="2" ry="2"/><rect class="cls-1" x="37.76" y="46.6" width="10.79" height="6.65" rx="2" ry="2"/><rect class="cls-1" x="37.76" y="35.38" width="10.79" height="6.65" rx="2" ry="2"/><rect class="cls-1" x="37.76" y="24.16" width="10.79" height="6.65" rx="2" ry="2"/><rect class="cls-1" x="52.07" y="57.82" width="10.79" height="6.65" rx="2" ry="2"/><rect class="cls-1" x="52.07" y="46.6" width="10.79" height="6.65" rx="2" ry="2"/><rect class="cls-1" x="52.07" y="35.38" width="10.79" height="6.65" rx="2" ry="2"/><rect class="cls-1" x="52.07" y="24.16" width="10.79" height="6.65" rx="2" ry="2"/></svg>