<svg id="Layer_1" data-name="Layer 1" xmlns="http://www.w3.org/2000/svg" viewBox="0 0 100 100"><defs><style>.cls-1,.cls-2{fill:none;stroke:#fff;}.cls-1{stroke-linecap:round;stroke-linejoin:round;stroke-width:1.66px;}.cls-2{stroke-miterlimit:10;stroke-width:2.48px;}</style></defs><title>copy</title><line class="cls-1" x1="46.46" y1="52.28" x2="72.55" y2="52.28"/><line class="cls-1" x1="46.46" y1="60.39" x2="72.55" y2="60.39"/><line class="cls-1" x1="46.46" y1="68.51" x2="72.55" y2="68.51"/><line class="cls-1" x1="46.46" y1="44.17" x2="59.5" y2="44.17"/><rect class="cls-2" x="39.76" y="30.06" width="39.48" height="52.55" rx="5" ry="5"/><line class="cls-1" x1="27.45" y1="39.61" x2="36.13" y2="39.61"/><line class="cls-1" x1="27.45" y1="47.72" x2="36.13" y2="47.72"/><line class="cls-1" x1="27.45" y1="55.83" x2="36.13" y2="55.83"/><line class="cls-1" x1="27.45" y1="31.49" x2="36.13" y2="31.49"/><path class="cls-2" d="M36.13,69.94H24.9a4.15,4.15,0,0,1-4.14-4.14V21.53a4.15,4.15,0,0,1,4.14-4.14H56.1a4.15,4.15,0,0,1,4.14,4.14v4.9"/></svg>