<svg id="Layer_1" data-name="Layer 1" xmlns="http://www.w3.org/2000/svg" viewBox="0 0 100 100"><defs><style>.cls-1{fill:#231f20;}.cls-2,.cls-3{fill:#fff;}.cls-2{opacity:0.2;}.cls-4{fill:none;stroke:#fff;stroke-linecap:round;stroke-linejoin:round;stroke-width:3px;}</style></defs><title>favorite</title><polygon class="cls-1" points="34.61 57.51 34.65 57.54 34.66 57.52 34.61 57.51"/><polygon class="cls-2" points="73.04 41.87 57.1 39.54 50.07 25.11 42.89 39.54 26.94 41.87 38.46 53.04 35.85 68.95 49.99 61.35 64.13 68.95 61.52 53.04 73.04 41.87"/><path class="cls-3" d="M64.13,68.95c-.64-2.62-1.17-5.25-1.68-7.89s-1-5.28-1.42-7.93a.5.5,0,0,1,.15-.44C63.1,50.83,65,49,67,47.18l3-2.69c1-.87,2-1.77,3.05-2.62-.88,1-1.81,2-2.71,3l-2.78,2.89c-1.86,1.93-3.77,3.8-5.68,5.67L62,53c.42,2.65.85,5.31,1.19,8S63.9,66.26,64.13,68.95Z"/><path class="cls-3" d="M35.85,68.95c2.26-1.45,4.57-2.8,6.89-4.14s4.66-2.62,7-3.9a.5.5,0,0,1,.47,0c2.35,1.28,4.7,2.55,7,3.9l3.47,2c1.14.71,2.29,1.38,3.42,2.11-1.23-.53-2.43-1.12-3.65-1.68l-3.6-1.78c-2.4-1.19-4.76-2.44-7.12-3.7h.47C47.86,63,45.5,64.3,43.1,65.49S38.31,67.86,35.85,68.95Z"/><path class="cls-3" d="M26.94,41.87C29,43.58,31,45.38,33,47.18s3.91,3.65,5.84,5.5a.5.5,0,0,1,.15.44c-.45,2.65-.89,5.3-1.42,7.93l-.79,4c-.3,1.31-.57,2.63-.89,3.94.11-1.34.27-2.68.41-4l.51-4c.35-2.67.77-5.32,1.19-8l.15.44c-1.91-1.87-3.82-3.74-5.68-5.67S28.72,43.88,26.94,41.87Z"/><path class="cls-3" d="M50.07,25.11c-1,2.5-2.12,4.94-3.25,7.38s-2.3,4.86-3.49,7.27A.5.5,0,0,1,43,40c-2.66.38-5.32.75-8,1l-4,.44c-1.34.11-2.68.26-4,.34,1.31-.31,2.63-.55,4-.82l4-.72c2.64-.48,5.3-.88,8-1.28l-.37.27c1.21-2.4,2.42-4.8,3.69-7.16S48.69,27.42,50.07,25.11Z"/><path class="cls-3" d="M73,41.87c-2.69-.18-5.36-.48-8-.78s-5.33-.67-8-1a.5.5,0,0,1-.38-.28c-1.16-2.41-2.32-4.82-3.41-7.26l-1.63-3.67c-.51-1.24-1.05-2.46-1.54-3.71.69,1.15,1.32,2.33,2,3.5l1.88,3.55c1.25,2.36,2.44,4.76,3.62,7.16L57.17,39c2.65.4,5.31.8,8,1.28S70.41,41.27,73,41.87Z"/><path class="cls-4" d="M50,82.61A32.61,32.61,0,1,1,82.61,50,32.61,32.61,0,0,1,50,82.61Z"/></svg>