<svg id="Layer_1" data-name="Layer 1" xmlns="http://www.w3.org/2000/svg" viewBox="0 0 100 100"><defs><style>.cls-1,.cls-2{fill:#fff;}.cls-1{opacity:0.2;}</style></defs><title>favorite-on</title><polygon class="cls-1" points="84.3 42.32 60.58 38.86 50.12 17.39 39.44 38.86 15.7 42.32 32.84 58.95 28.96 82.61 50 71.31 71.04 82.61 67.16 58.95 84.3 42.32"/><path class="cls-2" d="M71,82.61c-.65-1.92-1.17-3.86-1.7-5.8s-1-3.89-1.4-5.85-.81-3.92-1.22-5.88l-1.05-5.9a1.46,1.46,0,0,1,.42-1.3l0,0c1.43-1.38,2.87-2.76,4.34-4.1s2.93-2.69,4.46-4,3-2.58,4.59-3.85,3.14-2.48,4.8-3.63c-1.2,1.62-2.49,3.15-3.77,4.69s-2.62,3-4,4.47-2.74,2.89-4.11,4.34S69.62,58.63,68.2,60l.44-1.32.89,5.93c.24,2,.54,4,.72,6s.39,4,.54,6S71,80.59,71,82.61Z"/><path class="cls-2" d="M29,82.61c1.6-1.23,3.26-2.35,4.91-3.47s3.35-2.18,5.05-3.21,3.43-2,5.14-3L49.29,70a1.46,1.46,0,0,1,1.4,0h0c1.75.95,3.5,1.9,5.22,2.9s3.45,2,5.14,3,3.38,2.11,5.05,3.21,3.32,2.24,4.91,3.47c-1.91-.65-3.76-1.42-5.61-2.18S61.77,78.85,60,78s-3.59-1.74-5.38-2.61-3.54-1.82-5.3-2.76h1.42l-5.3,2.75c-1.79.87-3.56,1.78-5.38,2.61s-3.63,1.65-5.46,2.44S30.87,82,29,82.61Z"/><path class="cls-2" d="M15.7,42.32c1.66,1.15,3.22,2.39,4.79,3.63s3.09,2.53,4.59,3.85,3,2.65,4.46,4l4.34,4.1a1.46,1.46,0,0,1,.44,1.29v0c-.33,2-.67,3.94-1,5.9S32.52,69,32.06,71s-.9,3.9-1.4,5.85-1,3.88-1.7,5.8c0-2,.12-4,.24-6s.32-4,.54-6,.48-4,.72-6,.57-4,.9-5.93L31.8,60l-4.23-4.22C26.2,54.36,24.8,53,23.46,51.47s-2.67-3-4-4.47S16.9,43.94,15.7,42.32Z"/><path class="cls-2" d="M50.12,17.39c-.59,1.94-1.31,3.81-2,5.69s-1.48,3.73-2.28,5.56-1.63,3.65-2.45,5.48l-2.6,5.4a1.46,1.46,0,0,1-1.1.81h0c-2,.28-4,.56-5.94.79s-4,.47-6,.62-4,.32-6,.44-4,.18-6,.14c1.93-.62,3.88-1.1,5.83-1.59s3.91-.91,5.87-1.29,3.93-.74,5.9-1.11,3.94-.65,5.92-.94l-1.13.82,2.75-5.33c1-1.75,1.88-3.53,2.9-5.26s2-3.46,3.06-5.17S48.93,19,50.12,17.39Z"/><path class="cls-2" d="M84.3,42.32c-2,0-4-.05-6-.14s-4-.25-6-.44-4-.41-6-.62l-5.94-.78a1.46,1.46,0,0,1-1.12-.8v0c-.87-1.79-1.72-3.59-2.54-5.4S55,30.48,54.3,28.63s-1.51-3.69-2.22-5.56-1.38-3.75-2-5.69c1.17,1.64,2.22,3.35,3.28,5s2,3.43,3,5.18,1.89,3.51,2.84,5.26,1.81,3.55,2.69,5.33l-1.13-.83,5.92.95c2,.37,3.94.69,5.89,1.11s3.91.84,5.87,1.29S82.37,41.7,84.3,42.32Z"/></svg>