<svg id="Layer_1" data-name="Layer 1" xmlns="http://www.w3.org/2000/svg" viewBox="0 0 100 100"><defs><style>.cls-1,.cls-3{fill:#fff;}.cls-1{fill-rule:evenodd;}.cls-2,.cls-4{fill:none;stroke:#fff;stroke-linecap:round;stroke-linejoin:round;}.cls-2{stroke-width:3px;}.cls-4{stroke-width:2px;}</style></defs><title>financial</title><path class="cls-1" d="M51.84,69.82l-.49.13-.5.14v1.86h-2.6V70.08L48,70c-2.76-.54-4.23-2-4.61-4.71h1.14c.4,0,.93,0,1.46,0a1,1,0,0,1,.17.29,2.21,2.21,0,0,0,2.15,1.62c.81,0,1.63,0,2.45,0A2.21,2.21,0,0,0,53,65a2.26,2.26,0,0,0-2.31-2.31c-.47,0-.93,0-1.4,0h-1a4.92,4.92,0,0,1-4.87-4.47,4.91,4.91,0,0,1,3.83-5.29l.48-.13.51-.14V50.81h2.6v1.87l.26.05c2.76.54,4.23,2,4.61,4.71H54.55c-.41,0-.93,0-1.47,0a1.09,1.09,0,0,1-.17-.3,2.21,2.21,0,0,0-2.15-1.62c-.82,0-1.63,0-2.45,0a2.21,2.21,0,0,0-2.27,2.25A2.26,2.26,0,0,0,48.37,60c.46,0,.93,0,1.4,0h1a4.92,4.92,0,0,1,4.87,4.47A4.91,4.91,0,0,1,51.84,69.82Z"/><path class="cls-2" d="M48.07,34c-.53-2.23-2.3-11.31-1.51-16.58C51,17.3,58.9,18.85,61.65,21.2c-2.56,5.23-6.5,12.12-6.24,16.65,3.15,1.51,13.72,9.32,14.37,18.77a67.48,67.48,0,0,1,0,13.72c1.84,3.22,5.38,6.63,5.38,10.57-2.49,1.25-7.61.79-11.88.33-4.4,1.51-19.3,2.23-25.4-.2-5.58,1.05-9.52,2-13.06,1.25-.2-4.13,3.61-9.45,4.53-10.17-2-2.89-5.05-25.4,13.45-34.65-.2-5.38-5.71-13.73-7.74-14.77,2.3-2.1,10.4.06,11.42,1"/><path class="cls-3" d="M53,39.65a12.11,12.11,0,0,1-5.62,1.15,9.16,9.16,0,0,1-3-.56,4.69,4.69,0,0,1-2.68-2.38l-.06-.12a1.27,1.27,0,0,1,2.31-1.05A1.31,1.31,0,0,1,44,37a2.46,2.46,0,0,0,1.16,1.52,7.59,7.59,0,0,0,2.34,1A11.49,11.49,0,0,0,53,39.65Z"/><path class="cls-3" d="M37.33,81.89a10,10,0,0,1-1.87-1.64,8.22,8.22,0,0,1-1.33-2,8.6,8.6,0,0,1-.8-4.46,8,8,0,0,0,1.85,3.79,6.64,6.64,0,0,0,1.52,1.29,7.83,7.83,0,0,0,1.75.81h0a1.27,1.27,0,0,1-.85,2.38A1.32,1.32,0,0,1,37.33,81.89Z"/><path class="cls-4" d="M63.26,24.32c3.32.46,7,1.49,8.65,2.85-2.09,4.27-5.3,9.89-5.09,13.58C69.39,42,78,48.36,78.55,56.07a55,55,0,0,1,0,11.19c1.5,2.62,4.39,5.41,4.39,8.62a11.7,11.7,0,0,1-5.17.64"/><path class="cls-4" d="M22.42,77a14.33,14.33,0,0,1-4.7,0c-.16-3.37,2.94-7.71,3.69-8.3-1.61-2.36-4.12-20.72,11-28.27-.16-4.39-4.66-11.2-6.32-12,1.87-1.71,8.48,0,9.31.78"/></svg>