<svg id="Layer_1" data-name="Layer 1" xmlns="http://www.w3.org/2000/svg" viewBox="0 0 100 100"><defs><style>.cls-1{fill:none;stroke:#231f20;stroke-linecap:round;stroke-linejoin:round;stroke-width:2px;}.cls-2{fill:#231f20;}</style></defs><title>fiscal</title><path class="cls-1" d="M49.6,82.61C58,74,72,79.32,75.63,59.89a6.74,6.74,0,0,1-4.75,4.39c5.25-5.69,4.94-10.47,4.55-13.74A7.71,7.71,0,0,1,73.07,55c2.06-5.8-.73-10.68,2.35-15.78a9.83,9.83,0,0,0-5.49,2.22c.42-4.62-1.38-8.17-4.55-12A8.74,8.74,0,0,1,65,36.2c.08-11.76-8.83-11.53-7.31-18.82-3.73.81-9.16,5.93-10.59,9.45,0-3.28,3.55-6.5,3.55-6.5-6.23,2.85-9.26,5.83-10.2,8.11a2.07,2.07,0,0,1,.38-1.85c-4.56,1.83-6.34,8.62-6.34,8.62.16-2.89-1-5.24-2.14-6-.37,7.48-6,8.58-4.39,16.31-1-.57-1.7-2.77-1.8-3.58C25,43.74,23,48.6,26.93,60.59c-1.2-.18-2.56-3.08-2.56-3.08C27.72,82,48.55,79.11,49.6,82.61Z"/><path class="cls-2" d="M41.71,63.12c.16.13,1.53-3.15,1.53-3.15s-.94,3.6-.9,3.73c.13.42,2.67,1,2.67,1-1,.14-2.18-.38-2.83-.34-.43,0-.41.66-.41.93S43.69,66,45,66a7,7,0,0,1-3.25-.25c0,.45.35,1.25,2.13,1.13a2.26,2.26,0,0,1-1.36.19C41.12,66.53,41,63.79,41,61.51v-.27A6.84,6.84,0,0,0,41.71,63.12Z"/><path class="cls-2" d="M51.73,63c-.76,0-1.19.27-2.13.27S48.23,63,47.47,63a3,3,0,0,1-2.34-1.21c0,.58,1.22,2.69,2.09,2.69.29,0-.07-.27-.07-.46,1.23,0,1.11.72,1.11,1.19a4,4,0,0,1,1.34,3.08,4,4,0,0,1,1.34-3.08c0-.47-.13-1.19,1.11-1.19,0,.18-.37.46-.07.46.88,0,2.1-2.11,2.09-2.69A3,3,0,0,1,51.73,63Z"/><path class="cls-2" d="M45.73,52.33c-1-.38-1.3-.9-2.59-1.11a8.88,8.88,0,0,1-3-.69c.14.64,1,1,1.43,1.23.66.29.4,1.11,1.15,1.65a2.2,2.2,0,0,0,2.41-.07c.12.25-.27.59-.27.59a3.15,3.15,0,0,1,.82,2.29A14.14,14.14,0,0,0,45.84,53a2.54,2.54,0,0,0,2.51-1.47A2.65,2.65,0,0,1,45.73,52.33ZM43,51.49c.89.39,1,.75.63,1.27a1,1,0,0,0,.83-.43l.34.23C43.56,53.9,42.29,52.73,43,51.49Z"/><path class="cls-2" d="M40.67,52.12c0,2,1.93,2.56,3.07,2.45C41.63,53.79,41.56,52.63,40.67,52.12Z"/><path class="cls-2" d="M45,45.27a6.82,6.82,0,0,1,3.2,3.67C48.71,47.5,46.89,45.32,45,45.27Z"/><path class="cls-2" d="M57.49,63.12C57.33,63.25,56,60,56,60s.94,3.6.9,3.73c-.13.42-2.67,1-2.67,1,1,.14,2.18-.38,2.83-.34.43,0,.41.66.41.93s-1.92.75-3.23.72a7,7,0,0,0,3.25-.25c0,.45-.35,1.25-2.13,1.13a2.26,2.26,0,0,0,1.36.19c1.39-.53,1.52-3.27,1.52-5.55v-.27A6.84,6.84,0,0,1,57.49,63.12Z"/><path class="cls-2" d="M50.85,51.49A2.54,2.54,0,0,0,53.36,53a14.14,14.14,0,0,0,.16,3.26,3.15,3.15,0,0,1,.82-2.29s-.4-.34-.27-.59a2.2,2.2,0,0,0,2.41.07c.75-.53.49-1.36,1.15-1.65.45-.21,1.29-.59,1.43-1.23a8.88,8.88,0,0,1-3,.69c-1.29.21-1.62.73-2.59,1.11A2.65,2.65,0,0,1,50.85,51.49Zm3.53,1.06.34-.23a1,1,0,0,0,.83.43c-.37-.52-.26-.88.63-1.27C56.91,52.73,55.64,53.9,54.38,52.56Z"/><path class="cls-2" d="M58.53,52.12c0,2-1.93,2.56-3.07,2.45C57.57,53.79,57.64,52.63,58.53,52.12Z"/><path class="cls-2" d="M54.18,45.27A6.82,6.82,0,0,0,51,48.94C50.49,47.5,52.31,45.32,54.18,45.27Z"/><path class="cls-2" d="M55.89,70.9c-.18-.48-.52-1.24-1.17-1.24H52.86c-.84,0-2.33-.39-3.26-.39s-2.42.38-3.26.39H44.48c-.65,0-1,.76-1.17,1.24a1.73,1.73,0,0,1,1-.14,3.56,3.56,0,0,0,0,2.07,1.5,1.5,0,0,1,.8-.91,6.39,6.39,0,0,0,.58,2.9,2.41,2.41,0,0,1,.7-1.25,3.65,3.65,0,0,0,1.41,2.24,4.08,4.08,0,0,1,.58-1.69A4.23,4.23,0,0,0,49.6,76a4.23,4.23,0,0,0,1.24-1.9,4.08,4.08,0,0,1,.58,1.69,3.65,3.65,0,0,0,1.41-2.24,2.41,2.41,0,0,1,.7,1.25,6.39,6.39,0,0,0,.58-2.9,1.5,1.5,0,0,1,.8.91,3.56,3.56,0,0,0,0-2.07A1.73,1.73,0,0,1,55.89,70.9Z"/><path class="cls-2" d="M56.15,42.14a1.45,1.45,0,0,1,.56.37c1.75-1.38,4.41-2.09,6-1.36C60.52,39.8,57.3,41.43,56.15,42.14Z"/><path class="cls-2" d="M47.47,63c.76,0,1.19.27,2.13.27S51,63,51.73,63a3,3,0,0,0,2.34-1.21c0,.58-1.22,2.69-2.09,2.69-.29,0,.07-.27.07-.46-1.23,0-1.11.72-1.11,1.19a4,4,0,0,0-1.34,3.08,4,4,0,0,0-1.34-3.08c0-.47.13-1.19-1.11-1.19,0,.18.37.46.07.46-.88,0-2.1-2.11-2.09-2.69A3,3,0,0,0,47.47,63Z"/><path class="cls-2" d="M41.75,43.13c-4.12-3.88-10.19-1.38-4.75,5.14.25-.49.5-1,.57-1.17-2.21-3,.66-4.41,2.56-2.79A16.07,16.07,0,0,0,37.2,48.5a8.55,8.55,0,0,0-.87,3.73c0,2.44,3.89,5.37,4.49,7.83-.15-2.45-3.69-5.42-3.74-7.59S38.13,47.11,41.75,43.13Z"/><path class="cls-2" d="M57.45,43.13c4.12-3.88,10.19-1.38,4.75,5.14-.25-.49-.5-1-.57-1.17,2.21-3-.66-4.41-2.56-2.79A16.07,16.07,0,0,1,62,48.5a8.54,8.54,0,0,1,.87,3.73c0,2.44-3.89,5.37-4.49,7.83.15-2.45,3.69-5.42,3.74-7.59S61.07,47.11,57.45,43.13Z"/><path class="cls-2" d="M43.05,42.14a1.45,1.45,0,0,0-.56.37c-1.75-1.38-4.41-2.09-6-1.36C38.68,39.8,41.9,41.43,43.05,42.14Z"/></svg>