<svg id="Layer_1" data-name="Layer 1" xmlns="http://www.w3.org/2000/svg" viewBox="0 0 100 100"><defs><style>.cls-1{fill:none;stroke:#000;stroke-miterlimit:10;stroke-width:2.87px;}</style></defs><title>folder</title><path d="M84.42,29.34a4.81,4.81,0,0,0-4.79-4.79H37.57L34.7,21c-2-2.41-3.59-2.4-6.23-2.4h-8.1a4.81,4.81,0,0,0-4.79,4.79v9.44H84.42Z"/><path class="cls-1" d="M79.64,81.36H20.36a4.8,4.8,0,0,1-4.79-4.79l-4.79-36a4.8,4.8,0,0,1,4.79-4.79H84.42a4.8,4.8,0,0,1,4.79,4.79l-4.79,36A4.8,4.8,0,0,1,79.64,81.36Z"/></svg>