<svg id="Layer_1" data-name="Layer 1" xmlns="http://www.w3.org/2000/svg" viewBox="0 0 100 100"><defs><style>.cls-1,.cls-2{fill:none;stroke:#231f20;}.cls-1{stroke-linecap:round;stroke-linejoin:round;stroke-width:3px;}.cls-2{stroke-miterlimit:10;stroke-width:2px;fill-rule:evenodd;}.cls-3{fill:#231f20;}</style></defs><title>chat cópia</title><path class="cls-1" d="M36,80.29H17.06V19.71H36Z"/><path class="cls-2" d="M26.57,75.11a4.82,4.82,0,1,0-4.86-4.86A4.79,4.79,0,0,0,26.57,75.11Z"/><rect class="cls-3" x="20.65" y="23.11" width="11.79" height="37.58" rx="2" ry="2"/><path class="cls-1" d="M59.47,80.29H40.53V19.71H59.47Z"/><path class="cls-2" d="M50,75.11a4.82,4.82,0,1,0-4.86-4.86A4.79,4.79,0,0,0,50,75.11Z"/><rect class="cls-3" x="44.12" y="23.11" width="11.79" height="37.58" rx="2" ry="2"/><path class="cls-1" d="M82.94,80.29H64V19.71H82.94Z"/><path class="cls-2" d="M73.49,75.11a4.82,4.82,0,1,0-4.86-4.86A4.79,4.79,0,0,0,73.49,75.11Z"/><rect class="cls-3" x="67.58" y="23.11" width="11.79" height="37.58" rx="2" ry="2"/></svg>