<svg id="Layer_1" data-name="Layer 1" xmlns="http://www.w3.org/2000/svg" viewBox="0 0 100 100"><defs><style>.cls-1{fill:none;stroke:#fff;stroke-linecap:round;stroke-linejoin:round;stroke-width:3px;}.cls-2,.cls-3{fill:#fff;}.cls-2{fill-rule:evenodd;opacity:0.2;}</style></defs><title>home</title><path class="cls-1" d="M50,82.61A32.61,32.61,0,1,1,82.61,50,32.61,32.61,0,0,1,50,82.61Z"/><path class="cls-2" d="M71.07,42.74c1.42-1.43,3.32-3.6,1.07-8.08-.86-1.71-1-3.44-3.23-3.57-1.53-.09-7.82,3-16.3,6.76-2,.9-4.22.39-6.24.79-6.75,1.32-14.86,9.94-15,10.25s-2.07-.89-3.67-1.12a2.46,2.46,0,0,0-2.87,2.83,26.84,26.84,0,0,0,.66,2.85,3.43,3.43,0,0,1,0,2l-2.64,5a29.08,29.08,0,0,0,33.72,17.9c.15-.65.29-1.29.45-1.94,2.12-8.49,5.19-16.61,11.2-23.3a48.06,48.06,0,0,0,4-5.24,11.85,11.85,0,0,0,1.07-2.74C73.71,43.54,72.35,43.5,71.07,42.74Z"/><path class="cls-3" d="M29.77,50.71c-1.39-.11-1.95.53-1.31,1.75.89,1.71,2,3.32,3,5l.44-.23c.15-1.1.25-2.21.45-3.31C32.67,52,31.75,50.86,29.77,50.71Z"/><path class="cls-3" d="M48.27,41.21a13.5,13.5,0,0,0-1.15,3.69l.64.22,3.31-4.51C49.95,40.82,48.61,40.69,48.27,41.21Z"/><path class="cls-3" d="M73.32,44.35a3.42,3.42,0,0,0-2-1.84c2.51-2.44,2.26-5.18.72-8a4.54,4.54,0,0,1-.23-.59c-1-2.68-2.11-3.37-4.83-2.31-4.67,1.82-9.24,3.89-13.87,5.82-1,.42-2.15,1.07-3.16,1a14,14,0,0,0-10,2.91c-3.2,2-6.6,4.54-8.72,7.58a17.09,17.09,0,0,0-3.5-1.05,2.46,2.46,0,0,0-2.87,2.83,26.84,26.84,0,0,0,.66,2.85,3.43,3.43,0,0,1,0,2l-2.64,5q.29.75.62,1.48c1-2.12,2-4.26,3.11-6.56L32,63.21a12.75,12.75,0,0,0-1.17-2.8c-1.46-2.57-3-5.09-4.45-7.68-.66-1.2-.82-2.71.49-3.4,1-.5,2.35-.29,3.53-.2a5.41,5.41,0,0,1,1.72.81l.26-.68L31.61,49a23.64,23.64,0,0,1,5.15-5.07l.62-.44c4-2.81,8.08-5.51,13.42-4.68a4.58,4.58,0,0,0,2.38-.64c2.42-1.14,4.73-2.57,7.23-3.5,2.27-.84,4.69-2.29,7.11,0a3.21,3.21,0,0,0,2.43.34c1.65-.31,2.28.61,2.37,1.89a5.63,5.63,0,0,1-.47,3.22A39.19,39.19,0,0,1,61.66,50.5c4.07-1.21,6.58-4.85,10.38-6.83a1.51,1.51,0,0,1,.62,1.4,8.76,8.76,0,0,1-.95,2.3c-.68,1-1.33,2-2.05,3-2.24,3-5,5.71-6.86,8.9A81.8,81.8,0,0,0,54.6,78.7c.67-.11,1.33-.23,2-.38.15-.65.29-1.29.45-1.94,2.12-8.49,5.19-16.61,11.2-23.3a48.06,48.06,0,0,0,4-5.24,5,5,0,0,0,.54-1.15A3.59,3.59,0,0,0,73.32,44.35Z"/></svg>