<svg id="Layer_1" data-name="Layer 1" xmlns="http://www.w3.org/2000/svg" viewBox="0 0 100 100"><defs><style>.cls-1,.cls-2{fill:none;stroke:#fff;stroke-miterlimit:10;}.cls-1{stroke-width:3.38px;}.cls-2{stroke-width:2.36px;}.cls-3{fill:#fff;}</style></defs><title>lock</title><rect class="cls-1" x="28.59" y="51.03" width="42.82" height="31.59" rx="5" ry="5"/><path class="cls-2" d="M35.91,46.93V31.55A14.13,14.13,0,0,1,50,17.46h0A14.13,14.13,0,0,1,64.09,31.55V46.93"/><path class="cls-3" d="M50,58.69A5,5,0,0,0,47.25,68v5.37a2.75,2.75,0,0,0,5.5,0V68A5,5,0,0,0,50,58.69Zm0,7.79a2.75,2.75,0,1,1,2.75-2.75A2.75,2.75,0,0,1,50,66.49Z"/></svg>