<svg id="Layer_1" data-name="Layer 1" xmlns="http://www.w3.org/2000/svg" viewBox="0 0 100 100"><defs><style>.cls-1{fill:none;stroke:#000;stroke-miterlimit:10;stroke-width:3px;}</style></defs><title>notification</title><path d="M42.37,79.55a8,8,0,0,0,15.91,0Z"/><path class="cls-1" d="M81.49,67.28c-2.47-2.75-8.13-7.8-8.13-24.37,0-20.44-12.36-25.53-23-25.53s-23,5.09-23,25.53c0,16.57-5.66,21.62-8.13,24.37a5.75,5.75,0,0,0-1.45,3.58A5.15,5.15,0,0,0,22.86,76H77.78a5.15,5.15,0,0,0,5.15-5.15A5.75,5.75,0,0,0,81.49,67.28Z"/></svg>