<svg id="Layer_1" data-name="Layer 1" xmlns="http://www.w3.org/2000/svg" viewBox="0 0 100 100"><defs><style>.cls-1,.cls-3{fill:none;stroke:#231f20;stroke-miterlimit:10;}.cls-1{stroke-width:2px;}.cls-2{fill:#231f20;}.cls-3{stroke-width:3px;}</style></defs><title>print</title><path class="cls-1" d="M28,28.39V19.54a2.15,2.15,0,0,1,2.15-2.15H69.87A2.15,2.15,0,0,1,72,19.54v8.85"/><circle class="cls-2" cx="79.47" cy="42.25" r="1.88"/><circle class="cls-2" cx="79.47" cy="47.16" r="1.21"/><path class="cls-2" d="M28,28.39h-2.2a1.08,1.08,0,0,0-1.08,1.08V44.94A1.08,1.08,0,0,0,25.78,46H28Z"/><path class="cls-2" d="M74.22,28.39H72V46h2.2a1.08,1.08,0,0,0,1.08-1.08V29.47A1.08,1.08,0,0,0,74.22,28.39Z"/><rect class="cls-2" x="27.98" y="38.48" width="44.96" height="7.53"/><path class="cls-1" d="M72,76.59v3.87a2.15,2.15,0,0,1-2.15,2.15H30.13A2.15,2.15,0,0,1,28,80.46V76.59"/><path class="cls-2" d="M74.22,59H25.78A1.08,1.08,0,0,0,24.71,60V75.51a1.08,1.08,0,0,0,1.08,1.08H29V67.78H70.92v8.81h3.3a1.08,1.08,0,0,0,1.08-1.08V60A1.08,1.08,0,0,0,74.22,59Z"/><path class="cls-2" d="M25.78,46H74.22a1.08,1.08,0,0,0,1.08-1.08V29.47a1.08,1.08,0,0,0-1.08-1.08H70.94v7.55H29.05V28.39H25.78a1.08,1.08,0,0,0-1.08,1.08V44.94A1.08,1.08,0,0,0,25.78,46Z"/><path class="cls-3" d="M24.71,35.94H20.28a5.4,5.4,0,0,0-5.38,5.38V69A2.16,2.16,0,0,0,17,71.13h7.66"/><path class="cls-3" d="M75.29,71.13H83A2.16,2.16,0,0,0,85.1,69V41.32a5.4,5.4,0,0,0-5.38-5.38H75.29"/></svg>