<svg id="Layer_1" data-name="Layer 1" xmlns="http://www.w3.org/2000/svg" viewBox="0 0 567.6 326"><defs><style>.cls-1{fill:#fff;}</style></defs><title>logo-relatar</title><path class="cls-1" d="M116.23,247.38h-11.4a7.25,7.25,0,0,1-5.37-2.25,7.33,7.33,0,0,1-2.22-5.37l0-25.37H92.14v25.38a12.69,12.69,0,0,0,12.69,12.69h11.4Z"/><path class="cls-1" d="M87.9,214.38v5.1H67.58V229.6H85.17v5.1H67.58v12.68H87.9v5.06H62.52V214.38Z"/><path class="cls-1" d="M156,252.44H150.4l-4.51-10.16H130.55L126,252.44h-5.57l17.75-38.06Zm-23.2-15.21h10.82L138.22,225Z"/><path class="cls-1" d="M184.63,214.38v5.06H171.94v33h-5.06v-33H154.19v-5.06Z"/><path class="cls-1" d="M218.37,252.44h-5.6l-4.52-10.16H192.91l-4.51,10.16h-5.57l17.75-38.06Zm-23.2-15.21H206L200.58,225Z"/><path class="cls-1" d="M286.16,219.48a4.88,4.88,0,0,0-3.58,1.47,5,5,0,0,0,0,7.16,4.88,4.88,0,0,0,3.58,1.48H295a11.42,11.42,0,1,1,0,22.84H277.82v-5.06H295a6.36,6.36,0,1,0,0-12.72l-8.83,0a10.16,10.16,0,0,1,0-20.32H301.9v5.1Z"/><path class="cls-1" d="M310.68,214.38h5.06v38.06h-5.06Z"/><path class="cls-1" d="M330.14,219.48a4.87,4.87,0,0,0-3.58,1.47,5,5,0,0,0,0,7.16,4.87,4.87,0,0,0,3.58,1.48H339a11.42,11.42,0,1,1,0,22.84H321.79v-5.06H339a6.36,6.36,0,1,0,0-12.72l-8.83,0a10.16,10.16,0,0,1,0-20.32h15.73v5.1Z"/><path class="cls-1" d="M380.53,214.38v5.06H367.85v33h-5.06v-33H350.11v-5.06Z"/><path class="cls-1" d="M410.15,214.38v5.1H389.84V229.6h17.59v5.1H389.84v12.68h20.31v5.06H384.78V214.38Z"/><path class="cls-1" d="M464.24,252.44h-6.11l-8.45-26.38-10.82,16.23L428,226.06l-8.45,26.38h-6.07l12.68-38.06L430,220l8.91,13.19L447.74,220l3.81-5.61Z"/><path class="cls-1" d="M503.13,252.44h-5.6L493,242.28H477.68l-4.52,10.16H467.6l17.75-38.06Zm-23.19-15.21h10.82L485.35,225Z"/><path class="cls-1" d="M514.42,219.48a4.86,4.86,0,0,0-3.58,1.47,5,5,0,0,0,0,7.16,4.86,4.86,0,0,0,3.58,1.48h8.83a11.42,11.42,0,1,1,0,22.84H506.08v-5.06h17.18a6.36,6.36,0,1,0,0-12.72l-8.83,0a10.16,10.16,0,0,1,0-20.32h15.74v5.1Z"/><path class="cls-1" d="M55,235.59a12.7,12.7,0,0,0-9.42-21.21H32.91v38.06H38V237.23l13.7,15.21h6.61L46.91,239.67A12.34,12.34,0,0,0,55,235.59Zm-17-.94v-7.27c0-.11,0-.21,0-.31v-7.62h7.63a7.64,7.64,0,0,1,7.59,7.63,7.58,7.58,0,0,1-7.59,7.59H38Z"/><path class="cls-1" d="M244.72,235.59a12.7,12.7,0,0,0-9.42-21.21H222.61v38.06h5.06V237.23l13.7,15.21H248l-11.37-12.77A12.35,12.35,0,0,0,244.72,235.59Zm-17-.94v-7.27c0-.11,0-.21,0-.31v-7.62h7.62a7.61,7.61,0,1,1,0,15.21h-7.61Z"/><polygon class="cls-1" points="341.67 97.48 323.86 79.58 299.45 86.04 317.26 103.95 341.67 97.48"/><polygon class="cls-1" points="327.91 48.2 310.1 30.3 285.7 36.77 303.5 54.66 327.91 48.2"/><polygon class="cls-1" points="291.35 83.85 273.55 65.95 249.15 72.41 266.95 90.32 291.35 83.85"/><polygon class="cls-1" points="246.13 75.46 239.53 99.83 257.34 117.73 263.94 93.36 246.13 75.46"/><polygon class="cls-1" points="210.88 111.46 204.27 135.83 222.09 153.74 228.69 129.36 210.88 111.46"/><polygon class="cls-1" points="259.49 125.84 252.88 150.21 270.7 168.11 277.3 143.74 259.49 125.84"/><polygon class="cls-1" points="318.32 108.09 311.71 132.46 336.12 126 342.73 101.64 318.32 108.09"/><polygon class="cls-1" points="330.68 157.77 324.07 182.13 348.47 175.68 355.08 151.31 330.68 157.77"/><polygon class="cls-1" points="281.35 144.84 274.74 169.2 299.15 162.75 305.76 138.38 281.35 144.84"/><path class="cls-1" d="M145.76,293.3a11.57,11.57,0,0,0,1.86-1.79v-6.74h-7.67v2.61h4.59v2.94l-.19.16a9.38,9.38,0,0,1-2.55,1.58,8.23,8.23,0,0,1-10.63-4.33,7.91,7.91,0,0,1,0-6.26,8.15,8.15,0,0,1,1.77-2.55,8.36,8.36,0,0,1,2.61-1.72,8.82,8.82,0,0,1,6.93.16,7.86,7.86,0,0,1,2.63,2.12l2.15-2.19a12,12,0,0,0-3.52-2.63,11.14,11.14,0,0,0-5-1.12,11.54,11.54,0,0,0-4.46.87,11.85,11.85,0,0,0-3.65,2.37,11,11,0,0,0-2.45,3.51,10.52,10.52,0,0,0-.89,4.3,10.62,10.62,0,0,0,.9,4.37,11.26,11.26,0,0,0,2.46,3.53,11.45,11.45,0,0,0,3.64,2.35,11.8,11.8,0,0,0,6.89.6,11,11,0,0,0,2.38-.79A11.93,11.93,0,0,0,145.76,293.3Z"/><polygon class="cls-1" points="165.75 276.5 165.75 274 152.06 274 152.06 295.28 165.75 295.28 165.75 292.58 155.23 292.58 155.23 285.34 165.61 285.34 165.61 282.93 155.23 282.93 155.23 276.5 165.75 276.5"/><path class="cls-1" d="M183.57,292.1a4.93,4.93,0,0,0,.49-2.16,6.67,6.67,0,0,0-.33-2.19,5,5,0,0,0-1-1.71,7.55,7.55,0,0,0-1.83-1.43,16.4,16.4,0,0,0-2.79-1.25c-.89-.32-1.64-.62-2.24-.9a8.06,8.06,0,0,1-1.52-.87,3.13,3.13,0,0,1-.91-1,2.62,2.62,0,0,1-.28-1.21,2.4,2.4,0,0,1,.31-1.17,3.11,3.11,0,0,1,.76-.91,3.72,3.72,0,0,1,1.1-.61,4.08,4.08,0,0,1,1.37-.23,6.82,6.82,0,0,1,2.64.48,6.58,6.58,0,0,1,1.64,1l2.26-2.28a9,9,0,0,0-2.54-1.48,11.79,11.79,0,0,0-4.14-.64,8,8,0,0,0-2.69.44,6.81,6.81,0,0,0-2.15,1.23,5.67,5.67,0,0,0-1.43,1.88,5.53,5.53,0,0,0-.52,2.4,5.45,5.45,0,0,0,.46,2.34,5.86,5.86,0,0,0,1.26,1.74,7.74,7.74,0,0,0,1.86,1.29,20.72,20.72,0,0,0,2.3,1c.94.34,1.73.65,2.33.93a7.57,7.57,0,0,1,1.51.86,2.87,2.87,0,0,1,.86,1,2.78,2.78,0,0,1,.25,1.18,2.39,2.39,0,0,1-.31,1.19,3,3,0,0,1-.79.89,3.87,3.87,0,0,1-1.11.57,4.22,4.22,0,0,1-1.33.21,8.79,8.79,0,0,1-3-.49,9,9,0,0,1-2.41-1.36l-2.31,2.33a16.78,16.78,0,0,0,1.41,1,9.86,9.86,0,0,0,1.86.89,10.85,10.85,0,0,0,2.08.51,11.46,11.46,0,0,0,5.31-.32,7.06,7.06,0,0,0,2.16-1.29A5.8,5.8,0,0,0,183.57,292.1Z"/><polygon class="cls-1" points="202.5 274 186.82 274 186.82 276.78 193.01 276.78 193.01 295.28 196.31 295.28 196.31 276.78 202.5 276.78 202.5 274"/><path class="cls-1" d="M218.31,290.8l2.07,4.48h3.55L213.86,274h-2.7l-10.07,21.3h3.56l2.1-4.48Zm-5.77-12.41,4.57,9.89h-9.2Z"/><path class="cls-1" d="M213.57,268.2l-1-.42q-.51-.22-1.07-.41a2.75,2.75,0,0,0-3.37,1.13,4.62,4.62,0,0,0-.58,1.38,6.71,6.71,0,0,0-.17,1h1.41a2.6,2.6,0,0,1,.28-.59,1.37,1.37,0,0,1,1.21-.64,3.45,3.45,0,0,1,1.21.23l1.06.43q.5.22,1,.41a3.12,3.12,0,0,0,2.43-.18,3,3,0,0,0,1-.94,4.19,4.19,0,0,0,.57-1.36,8.42,8.42,0,0,0,.17-1.06h-1.41a2.35,2.35,0,0,1-.35.65,1.52,1.52,0,0,1-1.27.58A3,3,0,0,1,213.57,268.2Z"/><path class="cls-1" d="M244.23,276.77a11.54,11.54,0,0,0-16,0,11.1,11.1,0,0,0-2.44,3.52,11,11,0,0,0,0,8.67,11.12,11.12,0,0,0,2.44,3.51,11.69,11.69,0,0,0,3.62,2.37,11.55,11.55,0,0,0,8.76,0,11.71,11.71,0,0,0,3.61-2.37,11,11,0,0,0,2.44-3.52,10.93,10.93,0,0,0,0-8.64A11.29,11.29,0,0,0,244.23,276.77Zm-.55,11a8.15,8.15,0,0,1-1.73,2.56,8.31,8.31,0,0,1-2.56,1.74,8,8,0,0,1-6.29,0,8.36,8.36,0,0,1-2.56-1.73,8.16,8.16,0,0,1-1.73-2.56,7.93,7.93,0,0,1,0-6.21,8.17,8.17,0,0,1,1.73-2.54,8.31,8.31,0,0,1,2.56-1.74,8,8,0,0,1,6.3,0,8.4,8.4,0,0,1,2.56,1.74,8.2,8.2,0,0,1,1.73,2.55,7.93,7.93,0,0,1,0,6.21Z"/><rect class="cls-1" x="260.84" y="274" width="3.25" height="21.28"/><polygon class="cls-1" points="286.9 295.28 286.9 273.97 283.74 273.97 283.74 289.87 273.41 273.97 269.38 273.97 269.38 295.28 272.55 295.28 272.55 278.27 283.49 295.28 286.9 295.28"/><polygon class="cls-1" points="306.47 274 290.79 274 290.79 276.78 296.97 276.78 296.97 295.28 300.28 295.28 300.28 276.78 306.47 276.78 306.47 274"/><polygon class="cls-1" points="324.04 276.5 324.04 274 310.35 274 310.35 295.28 324.04 295.28 324.04 292.58 313.52 292.58 313.52 285.34 323.9 285.34 323.9 282.93 313.52 282.93 313.52 276.5 324.04 276.5"/><path class="cls-1" d="M346.14,293.3a11.59,11.59,0,0,0,1.86-1.79v-6.74h-7.67v2.61h4.59v2.94l-.19.16a9.38,9.38,0,0,1-2.55,1.58,8.23,8.23,0,0,1-10.63-4.33,7.9,7.9,0,0,1,0-6.26,8.15,8.15,0,0,1,1.77-2.55,8.35,8.35,0,0,1,2.61-1.72,8.82,8.82,0,0,1,6.93.16,7.86,7.86,0,0,1,2.63,2.12l2.15-2.19a12,12,0,0,0-3.52-2.63,11.14,11.14,0,0,0-5-1.12,11.54,11.54,0,0,0-4.46.87,11.85,11.85,0,0,0-3.65,2.37,11,11,0,0,0-2.45,3.51,10.91,10.91,0,0,0,0,8.67,11.26,11.26,0,0,0,2.46,3.53,11.44,11.44,0,0,0,3.64,2.35,11.8,11.8,0,0,0,6.89.6,11,11,0,0,0,2.38-.79A11.93,11.93,0,0,0,346.14,293.3Z"/><path class="cls-1" d="M359.73,286.69a4.27,4.27,0,0,1,1.45.9,5.33,5.33,0,0,1,1,1.34,8.81,8.81,0,0,1,.67,1.64l1.47,4.71h3.48l-.18-.42c-.18-.45-.38-1-.58-1.61l-1.19-3.44q-.16-.46-.35-.92a5,5,0,0,0-1-1.62,3.76,3.76,0,0,0-1.51-1l-1.44-.54,1.46-.49a5,5,0,0,0,1.52-.82,6.18,6.18,0,0,0,1.21-1.27,5.89,5.89,0,0,0,.79-1.56,5.5,5.5,0,0,0,.28-1.73,5.9,5.9,0,0,0-.46-2.33,5.73,5.73,0,0,0-1.28-1.87,5.87,5.87,0,0,0-1.95-1.24,6.62,6.62,0,0,0-2.45-.45l-8.29,0v21.28h3.2v-8.9h2.16A5.48,5.48,0,0,1,359.73,286.69Zm-4.1-10.62h3.68a4.58,4.58,0,0,1,1.67.3,4.18,4.18,0,0,1,1.37.85,4.12,4.12,0,0,1,.92,1.29,4,4,0,0,1,.34,1.65,3.79,3.79,0,0,1-1.27,2.9,4,4,0,0,1-1.37.79,5,5,0,0,1-1.65.27h-3.68Z"/><path class="cls-1" d="M387.5,290.8l2.07,4.48h3.55L383.06,274h-2.7l-10.07,21.3h3.56l2.1-4.48Zm-5.77-12.41,4.57,9.89h-9.2Z"/><path class="cls-1" d="M414.83,288.78a11.91,11.91,0,0,0,0-8.3,10.45,10.45,0,0,0-2.07-3.38,10,10,0,0,0-3.17-2.28,9.51,9.51,0,0,0-4-.85h-8.81v21.3h8.81a9.62,9.62,0,0,0,7.18-3.11A10.63,10.63,0,0,0,414.83,288.78Zm-3.14-1a7.75,7.75,0,0,1-1.58,2.59,7.21,7.21,0,0,1-2.49,1.72,8.39,8.39,0,0,1-3.28.62H400V276.3h4.32a8.33,8.33,0,0,1,3.34.65,7.26,7.26,0,0,1,2.52,1.79,7.85,7.85,0,0,1,1.56,2.63,8.86,8.86,0,0,1,.51,3.16A9.61,9.61,0,0,1,411.69,287.74Z"/><path class="cls-1" d="M433.71,290.8l2.07,4.48h3.55L429.27,274h-2.7l-10.07,21.3h3.56l2.1-4.48Zm-5.77-12.41,4.57,9.89h-9.2Z"/></svg>