<svg id="Layer_1" data-name="Layer 1" xmlns="http://www.w3.org/2000/svg" viewBox="0 0 100 100"><defs><style>.cls-1{fill:#fff;}.cls-2,.cls-3,.cls-4{fill:none;stroke:#fff;stroke-linecap:round;stroke-linejoin:round;}.cls-2{stroke-width:2.97px;}.cls-3{stroke-width:1.98px;}.cls-4{stroke-width:0.99px;}</style></defs><title>report</title><rect class="cls-1" x="28.08" y="51.63" width="2.3" height="3.69"/><rect class="cls-1" x="32.31" y="48.73" width="2.3" height="6.59"/><path class="cls-1" d="M65.19,42.72a6.23,6.23,0,0,0,0-12.46v6.23H59A6.23,6.23,0,0,0,65.19,42.72Z"/><path class="cls-1" d="M64.45,29.51a6.23,6.23,0,0,0-6.23,6.23h6.23Z"/><path class="cls-1" d="M25.84,57.4H51.56a.37.37,0,0,0,0-.74H26.21V46.24a.37.37,0,0,0-.74,0V57A.37.37,0,0,0,25.84,57.4Z"/><rect class="cls-1" x="36.55" y="46.27" width="2.3" height="9.06"/><rect class="cls-1" x="40.78" y="44.86" width="2.3" height="10.47"/><rect class="cls-1" x="45.02" y="43.43" width="2.3" height="11.9"/><rect class="cls-1" x="49.26" y="41.59" width="2.3" height="13.74"/><rect class="cls-1" x="56.94" y="46.27" width="15.82" height="1.15"/><rect class="cls-1" x="56.94" y="48.73" width="15.82" height="1.15"/><rect class="cls-1" x="56.94" y="51.2" width="15.82" height="1.15"/><rect class="cls-1" x="56.94" y="53.67" width="15.82" height="1.15"/><line class="cls-2" x1="17.71" y1="19.25" x2="82.94" y2="19.25"/><line class="cls-2" x1="17.71" y1="63.81" x2="82.94" y2="63.81"/><line class="cls-3" x1="50.32" y1="83.84" x2="50.32" y2="63.81"/><line class="cls-3" x1="37.7" y1="80.97" x2="43.68" y2="64.89"/><line class="cls-3" x1="50.41" y1="83.84" x2="50.41" y2="63.81"/><line class="cls-3" x1="63.03" y1="80.97" x2="57.05" y2="64.89"/><line class="cls-4" x1="18.44" y1="19.25" x2="18.44" y2="63.81"/><line class="cls-4" x1="82.94" y1="19.25" x2="82.94" y2="63.81"/></svg>