<svg id="Layer_1" data-name="Layer 1" xmlns="http://www.w3.org/2000/svg" viewBox="0 0 100 100"><defs><style>.cls-1{fill:#fff;}.cls-2,.cls-3{fill:none;stroke:#fff;}.cls-2{stroke-miterlimit:10;stroke-width:3px;}.cls-3{stroke-linecap:round;stroke-linejoin:round;stroke-width:2px;}</style></defs><title>restaurant</title><path class="cls-1" d="M49.89,39.33,49,23.87h-.72v12.3a.46.46,0,0,1-.46.46h-.09a.46.46,0,0,1-.46-.46V23.87h-.94v12.3a.46.46,0,0,1-.46.46h-.09a.46.46,0,0,1-.46-.46V23.87h-.94v12.3a.46.46,0,0,1-.46.46h-.09a.46.46,0,0,1-.46-.46V23.87h-.72l-.94,15.46a3.76,3.76,0,0,0,3,3.66l-.34,31.77a1.37,1.37,0,0,0,1.36,1.36h.27a1.37,1.37,0,0,0,1.36-1.36L46.93,43A3.76,3.76,0,0,0,49.89,39.33Z"/><path class="cls-1" d="M58.35,24.6c0-.47-.22-.72-.91-.72-1.45,0-3.81,3.26-3.81,13.77V50.48a.94.94,0,0,0,.94.94h1l-.25,23.34a1.37,1.37,0,0,0,1.36,1.36H57a1.37,1.37,0,0,0,1.36-1.36Z"/><circle class="cls-2" cx="50.32" cy="50" r="32.61"/><path class="cls-3" d="M62,69.22a22.5,22.5,0,0,0,0-38.43"/><path class="cls-3" d="M38.73,30.72a22.5,22.5,0,0,0,1.83,39.54"/></svg>