<svg id="Layer_1" data-name="Layer 1" xmlns="http://www.w3.org/2000/svg" viewBox="0 0 100 100"><defs><style>.cls-1{fill:#fff;}.cls-2,.cls-3{fill:none;stroke:#fff;}.cls-2{stroke-miterlimit:10;stroke-width:3px;}.cls-3{stroke-linecap:round;stroke-linejoin:round;stroke-width:2px;}</style></defs><title>retail</title><path class="cls-1" d="M32,30V24.21a2.61,2.61,0,1,1,5.22,0V30H62.79V24.21a2.61,2.61,0,0,1,5.22,0V30H78l-.61-7.12C77.06,19.51,75,17.39,72,17.39H28.08a5.46,5.46,0,0,0-5.46,5.46L22,30Z"/><path class="cls-2" d="M24.14,22.79,19.28,77.1a5.2,5.2,0,0,0,5.4,5.51H75.32a5.2,5.2,0,0,0,5.4-5.51L75.89,22.79"/><path class="cls-3" d="M65.4,24.47V43.25A15.42,15.42,0,0,1,50,58.63h0A15.42,15.42,0,0,1,34.66,43.25V24.47"/></svg>