<svg id="Layer_1" data-name="Layer 1" xmlns="http://www.w3.org/2000/svg" viewBox="0 0 100 100"><defs><style>.cls-1{fill:#fff;}</style></defs><title>icon_gerencial</title><path class="cls-1" d="M52.71,31.23a18.84,18.84,0,0,1,4,1l6.81-16.6a30.81,30.81,0,0,0-8.74-2.26Z"/><path class="cls-1" d="M60.36,34.12,70.54,19.36a38.36,38.36,0,0,0-6.09-3.3L57.64,32.65A18.9,18.9,0,0,1,60.36,34.12Z"/><path class="cls-1" d="M34.62,38.91,20.35,28.06a36.74,36.74,0,0,0-6.42,14.22l17.59,3.52A18.85,18.85,0,0,1,34.62,38.91Z"/><path class="cls-1" d="M31,50a19.05,19.05,0,0,1,.28-3.25L13.74,43.23a37.07,37.07,0,0,0,2.32,21.23l16.39-7.28A18.9,18.9,0,0,1,31,50Z"/><path class="cls-1" d="M46,31.46,42.71,13.84a36.63,36.63,0,0,0-10.85,4l9,15.5A18.84,18.84,0,0,1,46,31.46Z"/><path class="cls-1" d="M50,31c.59,0,1.17,0,1.75.08l2.11-17.81a37.25,37.25,0,0,0-10.21.35L47,31.29A19.07,19.07,0,0,1,50,31Z"/><path class="cls-1" d="M40.05,33.86l-9-15.5A37.08,37.08,0,0,0,20.93,27.3L35.21,38.15A19.06,19.06,0,0,1,40.05,33.86Z"/><path class="cls-1" d="M77.86,74.17,64.17,62.6a18.93,18.93,0,0,1-10.53,6l3,17.69A36.84,36.84,0,0,0,77.86,74.17Z"/><path class="cls-1" d="M50,69a18.87,18.87,0,0,1-9.24-2.4L31.63,82A36.72,36.72,0,0,0,50,86.89a37.2,37.2,0,0,0,5.67-.43l-3-17.69A19.1,19.1,0,0,1,50,69Z"/><path class="cls-1" d="M32.84,58.06,16.45,65.34A37,37,0,0,0,30.8,81.5l9.14-15.43A19,19,0,0,1,32.84,58.06Z"/><path class="cls-1" d="M78.48,73.44a36.73,36.73,0,0,0,8.4-23H51.32Z"/></svg>