<svg id="Layer_1" data-name="Layer 1" xmlns="http://www.w3.org/2000/svg" viewBox="0 0 100 100"><defs><style>.cls-1{fill:#fff;fill-rule:evenodd;}</style></defs><title>icon_web</title><path class="cls-1" d="M50,5A45,45,0,1,0,95,50,45,45,0,0,0,50,5ZM35.27,10.75a65,65,0,0,0-6.56,19H13.24A42.15,42.15,0,0,1,35.27,10.75ZM11.69,32.89H28.19A106.26,106.26,0,0,0,26.9,48.44H8.1A41.6,41.6,0,0,1,11.69,32.89ZM8.07,51.56H26.91a105.92,105.92,0,0,0,1.31,15.55H11.81A41.44,41.44,0,0,1,8.07,51.56Zm5.22,18.66H28.73a63.53,63.53,0,0,0,6.62,19.06A42,42,0,0,1,13.29,70.22ZM48.64,91.92a41.71,41.71,0,0,1-9.45-1.43c-2.34-3.84-5.39-10.44-7.3-20.28H48.64Zm0-24.82H31.34A106.75,106.75,0,0,1,30,51.56H48.64Zm0-18.66H30A107.15,107.15,0,0,1,31.3,32.89H48.64Zm0-18.67H31.82C33.73,20,36.75,13.44,39.09,9.53a42.12,42.12,0,0,1,9.55-1.45ZM91.91,48.44H73.49A106.3,106.3,0,0,0,72.2,32.89h16A41.79,41.79,0,0,1,91.91,48.44ZM86.69,29.78h-15a65.6,65.6,0,0,0-6.49-18.9A42.16,42.16,0,0,1,86.69,29.78ZM51.75,8.07A42.21,42.21,0,0,1,61.34,9.6a63.05,63.05,0,0,1,7.24,20.18H51.75Zm0,24.82H69.09a106.31,106.31,0,0,1,1.29,15.55H51.75Zm0,18.67H70.37a106.87,106.87,0,0,1-1.31,15.55H51.75Zm0,40.31V70.22H68.52C66.6,80,63.58,86.57,61.25,90.42A42.36,42.36,0,0,1,51.75,91.86Zm13.36-2.72a63.85,63.85,0,0,0,6.55-18.93h15A41.92,41.92,0,0,1,65.11,89.15Zm23-22h-16a106,106,0,0,0,1.31-15.55H91.87A41.83,41.83,0,0,1,88.16,67.11Z"/></svg>