<svg id="Layer_1" data-name="Layer 1" xmlns="http://www.w3.org/2000/svg" viewBox="0 0 100 100"><defs><style>.cls-1{fill:#fff;fill-rule:evenodd;}</style></defs><title>icon_android</title><path class="cls-1" d="M74.67,35.3V69.13c0,5.86-1.82,7.68-7.68,7.76-.68,0-1.34.08-2.25.12,0,3.85,0,7.6,0,11.35s-2.17,6.25-5.5,6.26-5.52-2.5-5.53-6.27,0-7.49,0-11.35H46.29c0,4.08,0,8.12,0,12.16A5.61,5.61,0,0,1,42,94.53,5.31,5.31,0,0,1,36.13,92a8.17,8.17,0,0,1-.83-3.5c-.1-3.74,0-7.49,0-11.6-1.51,0-2.87.08-4.2,0-3.32-.23-5.57-2.32-5.6-5.56-.07-11.74,0-23.49,0-35.23a3.21,3.21,0,0,1,.21-.76Z"/><path class="cls-1" d="M12.21,51.21c0-3.76,0-7.52,0-11.27,0-3.46,2.25-5.75,5.5-5.75s5.5,2.31,5.52,5.75q0,11.26,0,22.55a5.52,5.52,0,1,1-11,0C12.19,58.73,12.21,55,12.21,51.21Z"/><path class="cls-1" d="M87.79,51.25c0,3.75,0,7.51,0,11.27a5.51,5.51,0,1,1-11,.15q-.09-11.51,0-23a5.5,5.5,0,1,1,11,.09C87.82,43.58,87.79,47.41,87.79,51.25Z"/><path class="cls-1" d="M62.25,13.27c1.15-2.07,2.22-3.92,3.17-5.85.29-.58.91-1.68.32-2S64.39,6.19,64,6.77c-1.15,1.88-2.16,3.85-3.26,5.88a27.66,27.66,0,0,0-21.57,0c-1.25-2.25-2.36-4.35-3.58-6.38-.24-.4-.87-1.09-1.33-.83s-.14,1.17.07,1.61c1.05,2.1,2.21,4.14,3.38,6.3C30,17.83,25.46,24.13,25.14,33.18H74.87C74.48,24,69.84,17.73,62.25,13.27ZM39.17,24.87a2.53,2.53,0,0,1-2.53-2.54,1.52,1.52,0,0,1,0-.29h0a2.53,2.53,0,1,1,2.51,2.85Zm21.74,0a2.53,2.53,0,1,1,2.53-2.54A2.54,2.54,0,0,1,60.91,24.87Z"/></svg>