<svg id="Layer_1" data-name="Layer 1" xmlns="http://www.w3.org/2000/svg" viewBox="0 0 100 100"><defs><style>.cls-1{fill:#fff;}</style></defs><title>icon_cia</title><path class="cls-1" d="M61.65,89.8h0a1.91,1.91,0,0,1-1.6-.85c-.62-.94-.23-1.86.19-2.83.69-1.62,1.3-3.31.47-4.57-.72-1.09-3.23-2.93-11.94-2.93-14.18,0-25.12-2.72-32.54-8.09S5,57.24,5,47A30,30,0,0,1,8.78,32.58a38.23,38.23,0,0,1,10.08-11.7,48.86,48.86,0,0,1,14.62-7.82A54.65,54.65,0,0,1,51,10.2a53.71,53.71,0,0,1,17,2.65,43,43,0,0,1,13.63,7.39A35.46,35.46,0,0,1,94.93,45.58c.56,8.45-2.22,17.1-8,25A60.8,60.8,0,0,1,62.73,89.54,2.62,2.62,0,0,1,61.65,89.8ZM51,13.76a48.52,48.52,0,0,0-30,9.92C13,30,8.56,38.32,8.56,47c0,9,3.28,15.91,9.76,20.6,6.79,4.92,17,7.41,30.45,7.41,8,0,12.9,1.48,14.91,4.53a6.54,6.54,0,0,1,.79,5.16c17.18-8.91,27.88-24.21,26.91-38.93C90.13,26.94,73.54,13.76,51,13.76Z"/><path class="cls-1" d="M42.26,55.41a9.71,9.71,0,0,0-.79-1.92,15.37,15.37,0,0,1-1.67.5,9.78,9.78,0,0,1-2.2.22A6.94,6.94,0,0,1,35.64,54,4.35,4.35,0,0,1,33.93,53a4.62,4.62,0,0,1-1.18-1.8,7.61,7.61,0,0,1-.43-2.73c0-2.08.5-3.58,1.49-4.48a5.26,5.26,0,0,1,3.65-1.32l1,0a8.41,8.41,0,0,1,1,.11c.35.06.71.14,1.1.24l.8.24a10.59,10.59,0,0,0,.74-2.09,8.89,8.89,0,0,0,.24-2.2c-.5-.18-1-.34-1.37-.47a11.16,11.16,0,0,0-1.48-.35A13.72,13.72,0,0,0,38.09,38c-.51,0-1.05,0-1.61,0a11.05,11.05,0,0,0-4.27.77,8.82,8.82,0,0,0-3.11,2.13,9.06,9.06,0,0,0-1.92,3.29,14.52,14.52,0,0,0,0,8.68,8.93,8.93,0,0,0,1.94,3.26,8.5,8.5,0,0,0,3.16,2.08,12.21,12.21,0,0,0,4.41.74,23.47,23.47,0,0,0,3-.2A13.84,13.84,0,0,0,42.64,58,9.94,9.94,0,0,0,42.26,55.41Z"/><path class="cls-1" d="M51.33,38.17c-.58-.05-1.13-.08-1.62-.08s-1.08,0-1.64.08c-.41,0-.82.1-1.24.18V58.48c.47.07.92.12,1.34.16s1.06.08,1.5.08.95,0,1.5-.08.89-.1,1.38-.17V38.34A12.19,12.19,0,0,0,51.33,38.17Z"/><path class="cls-1" d="M72.89,42.4a6.42,6.42,0,0,0-1.7-2.49,7.11,7.11,0,0,0-2.7-1.45A13,13,0,0,0,64.81,38a20.85,20.85,0,0,0-3.4.32,25.65,25.65,0,0,0-3.41.83c0,.35,0,.68.05,1a8.22,8.22,0,0,0,.19,1.14,5.49,5.49,0,0,0,.37,1.06c.11.24.24.51.39.79a16.87,16.87,0,0,1,2.31-.58,14.41,14.41,0,0,1,2.39-.23,10.68,10.68,0,0,1,1.52.11,5.25,5.25,0,0,1,1.43.42,3.07,3.07,0,0,1,1.17.94,2.81,2.81,0,0,1,.53,1.55l0,.63H65.26a16.75,16.75,0,0,0-3.08.3,8.87,8.87,0,0,0-2.8,1,5.89,5.89,0,0,0-2,1.9,5.37,5.37,0,0,0-.76,3,7,7,0,0,0,.65,3.19,5.36,5.36,0,0,0,1.79,2,8.13,8.13,0,0,0,2.84,1.16,17.82,17.82,0,0,0,3.78.38,22.87,22.87,0,0,0,4.55-.44c1.25-.26,2.36-.51,3.29-.77V46.13A10.2,10.2,0,0,0,72.89,42.4ZM68.35,54.62l-.45.11a9.45,9.45,0,0,1-1.1.18,10.34,10.34,0,0,1-1.13.09,9.72,9.72,0,0,1-1.24-.09,4.84,4.84,0,0,1-1.35-.37,3,3,0,0,1-1.15-.89,2.63,2.63,0,0,1-.5-1.66,2.53,2.53,0,0,1,1.26-2.23,5.08,5.08,0,0,1,2.73-.7h2.93Z"/></svg>