<svg id="Layer_1" data-name="Layer 1" xmlns="http://www.w3.org/2000/svg" viewBox="0 0 100 100"><defs><style>.cls-1{opacity:0;}.cls-2{fill:#003047;}</style></defs><title>icon_voltar</title><g class="cls-1"><path class="cls-2" d="M17.12,83A46.51,46.51,0,0,1,49.75,3.5h.18a46.5,46.5,0,0,1,.42,93h-.44A46.11,46.11,0,0,1,17.12,83ZM49.76,6.4a43.59,43.59,0,0,0,.15,87.19h.41A43.59,43.59,0,0,0,49.93,6.4Z"/></g><path class="cls-2" d="M58.06,74.66a2.84,2.84,0,0,1-2-.83L34.23,52a2.85,2.85,0,0,1,0-4L56,26.17a2.85,2.85,0,1,1,4,4L40.27,50l19.8,19.8a2.85,2.85,0,0,1-2,4.86Z"/></svg>