<svg id="Layer_1" data-name="Layer 1" xmlns="http://www.w3.org/2000/svg" viewBox="0 0 100 100"><defs><style>.cls-1{fill:#fff;}</style></defs><title>icon_hotel</title><path class="cls-1" d="M70.24,76.72h-2.4v-1.4h2.4Z"/><path class="cls-1" d="M70.2,50.84H67.83v1.4H70.2Z"/><path class="cls-1" d="M67.81,58.33h2.44V57H67.81Z"/><path class="cls-1" d="M67.81,73.62h2.43V72.24H67.81Z"/><path class="cls-1" d="M63.79,55.3h2.35V53.92H63.79Z"/><path class="cls-1" d="M67.84,46.16h2.44V44.81H67.84Z"/><path class="cls-1" d="M67.85,66.13v1.41h2.38V66.13Z"/><path class="cls-1" d="M66.12,63.07H63.75v1.37h2.37Z"/><path class="cls-1" d="M66.12,44.76H63.8v1.41h2.32Z"/><path class="cls-1" d="M66.11,70.57V69.16H63.78v1.41Z"/><path class="cls-1" d="M62.33,78.94V34.63l1.37.71,2.14,1.13c1.7.9,3.46,1.83,5.22,2.72a.91.91,0,0,1,.64,1c0,11.45,0,23.1,0,34.36v1.42l1.06-.57v-.86c0-11.26,0-22.91,0-34.36a1.79,1.79,0,0,0-1.17-1.77c-1.74-.88-3.5-1.81-5.2-2.71l-2.14-1.13-1.43-.74L61.27,33V79.09Z"/><path class="cls-1" d="M57.39,81.64a33.88,33.88,0,0,1,0-67.75c1.06,0,2.11.05,3.15.15a36.88,36.88,0,1,0,24,54A33.82,33.82,0,0,1,57.39,81.64Z"/><path class="cls-1" d="M46.4,19V77.35a31.41,31.41,0,0,0,11,2c.86,0,1.71,0,2.56-.1V71.6q0-22.41,0-44.82a1.16,1.16,0,0,0-.73-1.18c-4-2.05-7.91-4.14-11.87-6.22C47.12,19.24,46.84,19.15,46.4,19Zm5.72,58.68H49v-1.9h3.12Zm2.15-44.56h3.1V35h-3.1ZM57.39,49V50.8H54.28V49ZM54.27,41h3.09v1.84H54.27Zm0,19.78H57.4v1.89H54.27Zm0,7.93H57.4v1.89H54.27Zm0,4h3.13v1.78H54.25Zm-2.12-6.13H49V64.85h3.13ZM49,58.73V56.89h3.11v1.84ZM49,33.1h3.13V35H49ZM49,45h3.14v1.85H49Z"/></svg>