<svg id="Layer_1" data-name="Layer 1" xmlns="http://www.w3.org/2000/svg" viewBox="0 0 100 100"><defs><style>.cls-1{fill:#fff;}</style></defs><title>icon_paf-ecf</title><path class="cls-1" d="M78.7,60.75a.55.55,0,0,1-.59-.7.87.87,0,0,1,.9-.7.53.53,0,0,1,.55.7A.89.89,0,0,1,78.7,60.75Z"/><polygon class="cls-1" points="80.97 56.72 78.06 56.72 78.55 53.81 81.63 53.81 80.97 56.72"/><path class="cls-1" d="M85.89,38.85,77.45,21.48H63.5q0,.44,0,.86h5l5.19,13.57H26.25l5.19-13.57h5c0-.28,0-.56,0-.86H22.55L14.11,38.85l-1,7,9.4,43.56h54.9l9.4-43.57ZM26,36.48H74l.8,2.09H25.24Zm42.34,52.1H31.62L24.88,48.81H75.12Zm6.84-40.34H24.78l-.35-2.09H75.57ZM24.41,45.59l.69-6.45H74.9l.69,6.45ZM80,60.08a1.42,1.42,0,0,1-1.36,1.11,1,1,0,0,1-.81-.33,1.06,1.06,0,0,1-.17-.85,1.39,1.39,0,0,1,1.42-1.12.92.92,0,0,1,.78.33A1,1,0,0,1,80,60.08Zm1.38-2.82h-4l.69-4H82.3Z"/><path class="cls-1" d="M36.47,24.1l-3,10.48h33l-3-10.48V34.2H36.47V25C36.47,24.73,36.47,24.42,36.47,24.1Z"/><path class="cls-1" d="M60.79,10.57H39.21c-1.6,2.82-1.6,10.63-1.6,14.17v8.42H62.39V24.74C62.39,21.2,62.39,13.39,60.79,10.57ZM40.59,11.82H59v.55H40.59Zm-.31,1.3h19v.54h-19ZM40,14.56H59.56v.55H40ZM59.69,31.14H39.91v-.55H59.69Zm0-2.57H39.91V28H59.69Zm0-2.31H39.91v-.54H59.69Zm0-1.79H39.91v-.54H59.69Zm0-2.31H39.91V21.6H59.69Zm0-2.57H39.91V19H59.69Zm0-1.79H39.91v-.55H59.69Z"/></svg>