<svg id="Layer_1" data-name="Layer 1" xmlns="http://www.w3.org/2000/svg" viewBox="0 0 100 100"><defs><style>.cls-1{fill:#fff;}</style></defs><title>icon_ideal</title><path class="cls-1" d="M68.91,15.09a16,16,0,0,1,16,16V68.91a16,16,0,0,1-16,16H31.09a16,16,0,0,1-16-16V31.09a16,16,0,0,1,16-16H68.91m0-2H31.09a18,18,0,0,0-18,18V68.91a18,18,0,0,0,18,18H68.91a18,18,0,0,0,18-18V31.09a18,18,0,0,0-18-18Z"/><path class="cls-1" d="M78.15,72.41H21.85c-.36-.56-.66-.86-.66-1.22a.66.66,0,0,1,.66-.66h56.3a.66.66,0,0,1,.66.66C78.81,71.55,78.51,71.85,78.15,72.41Z"/><path class="cls-1" d="M74.88,27.07a.94.94,0,0,0-.75-.26H70.18a.94.94,0,1,0,0,1.88H72L51,50.14,40.74,40.19h0a.3.3,0,0,0-.42,0L24.84,56.08,40.52,40.83,50.66,51.19a.49.49,0,0,0,.7,0h0L73.27,30v1.81a.94.94,0,0,0,1.88,0V27.84A.94.94,0,0,0,74.88,27.07Z"/><path class="cls-1" d="M39.43,48.11,24.94,62.6v3.76a2.4,2.4,0,0,0,2.4,2.4H37a2.4,2.4,0,0,0,2.4-2.4Z"/><path class="cls-1" d="M74.2,34.42,59.71,48.91V66.36a2.4,2.4,0,0,0,2.4,2.4H71.8a2.4,2.4,0,0,0,2.4-2.4Z"/><path class="cls-1" d="M56.81,51.76,51,57.56l-8.69-8.69V66.36a2.4,2.4,0,0,0,2.4,2.4h9.69a2.4,2.4,0,0,0,2.4-2.4Z"/></svg>