<svg id="Layer_1" data-name="Layer 1" xmlns="http://www.w3.org/2000/svg" viewBox="0 0 100 100"><defs><style>.cls-1{fill:#fff;}</style></defs><title>icon_agricola</title><path class="cls-1" d="M66.59,56A25,25,0,0,0,76.8,48.9a29.53,29.53,0,0,1-4.14,2c-4.76,1.77-9.37,1.69-16.75.91a12.48,12.48,0,0,0-5.67.78c-6,2.21-10.79,8.17-13.49,11.59a29.45,29.45,0,0,1,9.08-5.54,19,19,0,0,1,8.72-1.27A24,24,0,0,0,66.59,56Z"/><path class="cls-1" d="M66.7,56.33A24.39,24.39,0,0,1,54.5,57.64c-.33,0-.66-.06-1-.08-9.51.85-14.71,5-20.33,10.53-4.87,4.79-9,12.5-9.19,20.22.95-8.59,7.73-23.32,21-23.23,12.29.08,22.59-1.52,31.89-15.81A25.18,25.18,0,0,1,66.7,56.33Z"/><path class="cls-1" d="M27.34,72.4l.9.51.3-.46-1-.59Z"/><path class="cls-1" d="M72,56.94h0c-1.06.66-2.07,2-3.12,2.86A29.29,29.29,0,0,1,30.95,73.61l-.33.43A31.83,31.83,0,0,0,73.19,55.7C72.79,56.15,72.25,56.94,72,56.94Z"/><path class="cls-1" d="M25.08,70.23A29.3,29.3,0,1,1,61.25,24.14a17.78,17.78,0,0,1,3.47-.47L67,23.58A31.87,31.87,0,1,0,24.9,70.84C25,70.64,25,70.43,25.08,70.23Z"/><path class="cls-1" d="M71.74,43.45a29.26,29.26,0,0,1,0,6.54,24.75,24.75,0,0,0,3.16-1.36A31.58,31.58,0,0,0,75,41.84Q73.4,42.71,71.74,43.45Z"/><path class="cls-1" d="M77.76,31.1A33.64,33.64,0,0,0,96.17,15.46a38.73,38.73,0,0,1-10.81,6.35c-5.57,2.07-12,2.67-20.52,3a17.69,17.69,0,0,0-5.56,1.12C49,29.72,41.59,42.46,38.05,48.59l-.21.36c5.14-6.3,11.41-11,17.88-13.42a25.46,25.46,0,0,1,8.16-1.68A45.82,45.82,0,0,0,77.76,31.1Z"/><path class="cls-1" d="M77.87,31.4a46.07,46.07,0,0,1-14,2.76l-.92,0C48.42,37.5,41.31,45.12,33.83,55c-6.4,8.46-11,21.25-9.89,33.25C23.69,74.77,31,50.54,51,47.81,69.5,45.29,84.68,40.6,95.87,16.63A34,34,0,0,1,77.87,31.4Z"/></svg>