<svg id="Layer_1" data-name="Layer 1" xmlns="http://www.w3.org/2000/svg" viewBox="0 0 100 100"><defs><style>.cls-1{opacity:0;}.cls-2{fill:#003047;}</style></defs><title>icon_proximo</title><g class="cls-1"><path class="cls-2" d="M82.88,17A46.51,46.51,0,0,1,50.25,96.5h-.18a46.5,46.5,0,0,1-.42-93h.44A46.11,46.11,0,0,1,82.88,17ZM50.24,93.6a43.59,43.59,0,0,0-.15-87.19h-.41a43.59,43.59,0,0,0,.39,87.18Z"/></g><path class="cls-2" d="M41.94,25.34a2.85,2.85,0,0,1,2,.83L65.77,48a2.85,2.85,0,0,1,0,4L44,73.83a2.85,2.85,0,1,1-4-4L59.73,50,39.93,30.2a2.85,2.85,0,0,1,2-4.86Z"/></svg>