<svg xmlns="http://www.w3.org/2000/svg" viewBox="0 0 100 100"><defs><style>.cls-1{isolation:isolate;}.cls-2,.cls-4{fill:#fff;}.cls-3{opacity:0.7;mix-blend-mode:multiply;}.cls-4{fill-rule:evenodd;}</style></defs><title>icon_sabor</title><g class="cls-1"><g id="Layer_1" data-name="Layer 1"><path class="cls-2" d="M68.91,15.09a16,16,0,0,1,16,16V68.91a16,16,0,0,1-16,16H31.09a16,16,0,0,1-16-16V31.09a16,16,0,0,1,16-16H68.91m0-2H31.09a18,18,0,0,0-18,18V68.91a18,18,0,0,0,18,18H68.91a18,18,0,0,0,18-18V31.09a18,18,0,0,0-18-18Z"/><g class="cls-3"><path class="cls-4" d="M23.68,55.71Q28.09,38.87,45.1,35.07c.67-.15.84-.36.83-1a4.05,4.05,0,0,1,3.53-4.1l.38,0-.19,0c-1,.23-1.78,2-1.76,4.1,0,.66-.08.87-.42,1Q39,38.85,36.79,55.71a40.59,40.59,0,0,0-.31,5.83H23.05A20.64,20.64,0,0,1,23.68,55.71Z"/></g><path class="cls-4" d="M77,59.38A27,27,0,0,0,54.82,35c-.68-.12-.68-.45-.68-1a4.07,4.07,0,0,0-4.32-4.16l-.16,0c-1,.23-1.78,2-1.76,4.1,0,.66-.08.87-.42,1Q39,38.85,36.79,55.71a40.58,40.58,0,0,0-.31,5.83H77C77,60.82,77,60.09,77,59.38Zm-9.37-5.8a2.26,2.26,0,0,1-2.8-1.09,17.6,17.6,0,0,0-6.6-6.19c-.32-.17-.66-.32-1-.52a2.26,2.26,0,0,1-.88-2.55,2.3,2.3,0,0,1,2.34-1.55,2.54,2.54,0,0,1,.68.16,21.43,21.43,0,0,1,9.44,8.58A2.21,2.21,0,0,1,67.6,53.58Z"/><path class="cls-4" d="M77.12,67.62a4.42,4.42,0,0,1-2.26,2.47H25.23A4.42,4.42,0,0,1,23,67.62L24.21,67a1.14,1.14,0,0,1,1-1.24H74.86a1.14,1.14,0,0,1,1,1.24Z"/><path class="cls-4" d="M81.74,66.86c0,.46-.56.83-1.25.83h-61c-.69,0-1.25-.37-1.25-.83V65.63c0-.46.56-.83,1.25-.83h61c.69,0,1.25.37,1.25.83Z"/></g></g></svg>