<svg id="Layer_1" data-name="Layer 1" xmlns="http://www.w3.org/2000/svg" viewBox="0 0 595.28 595.27"><defs><style>.cls-1{fill:#fff;}</style></defs><title>img_simbolo_relatar</title><polygon class="cls-1" points="485.96 255.29 426.11 195.12 344.08 216.85 403.93 277.03 485.96 255.29"/><polygon class="cls-1" points="439.71 89.67 379.88 29.51 297.86 51.25 357.69 111.39 439.71 89.67"/><polygon class="cls-1" points="316.87 209.47 257.04 149.32 175.04 171.01 234.85 231.23 316.87 209.47"/><polygon class="cls-1" points="164.88 181.27 142.7 263.17 202.55 323.32 224.73 241.43 164.88 181.27"/><polygon class="cls-1" points="46.42 302.26 24.23 384.16 84.09 444.33 106.28 362.42 46.42 302.26"/><polygon class="cls-1" points="209.77 350.6 187.59 432.48 247.45 492.63 269.63 410.75 209.77 350.6"/><polygon class="cls-1" points="407.5 290.94 385.29 372.84 467.3 351.14 489.54 269.25 407.5 290.94"/><polygon class="cls-1" points="449.03 457.88 426.81 539.76 508.82 518.07 531.04 436.19 449.03 457.88"/><polygon class="cls-1" points="283.26 414.43 261.04 496.3 343.07 474.61 365.29 392.74 283.26 414.43"/></svg>