<svg id="Layer_1" data-name="Layer 1" xmlns="http://www.w3.org/2000/svg" viewBox="0 0 100 100"><defs><style>.cls-1{fill:#fff;}.cls-2{opacity:0;}</style></defs><title>icon_user</title><path class="cls-1" d="M55.94,53.88a15.22,15.22,0,1,0-11.88,0A22.31,22.31,0,0,0,27.73,75.35h2A20.34,20.34,0,0,1,49,55.06a15,15,0,0,0,1.93,0A20.34,20.34,0,0,1,70.31,75.35h2A22.31,22.31,0,0,0,55.94,53.88Zm-5-.78c-.63,0-1.26,0-1.89,0a13.26,13.26,0,1,1,1.89,0Z"/><g class="cls-2"><path class="cls-1" d="M50.1,98h-.45a48,48,0,0,1,.43-96h.18A48,48,0,0,1,83.94,84,47.6,47.6,0,0,1,50.1,98Zm0-93a45,45,0,0,0-.4,90h.42a45,45,0,0,0,.15-90Z"/></g></svg>