<svg id="Layer_1" data-name="Layer 1" xmlns="http://www.w3.org/2000/svg" xmlns:xlink="http://www.w3.org/1999/xlink" viewBox="0 0 100 100"><defs><style>.cls-1{fill:#fff;opacity:0.25;}.cls-2{fill:url(#linear-gradient);}.cls-3{fill:#bcbec0;}</style><linearGradient id="linear-gradient" x1="50" y1="6.66" x2="50" y2="93.34" gradientUnits="userSpaceOnUse"><stop offset="0" stop-color="#82ca9c"/><stop offset="1" stop-color="#008e91"/></linearGradient></defs><title>icon_chat</title><path class="cls-1" d="M51.12,10.53a52.83,52.83,0,0,0-32.63,10.8C9.71,28.24,4.88,37.28,4.88,46.79c0,9.78,3.58,17.33,10.63,22.43,7.4,5.35,18.55,8.07,33.15,8.07,8.74,0,14.05,1.61,16.24,4.93a7.12,7.12,0,0,1,.86,5.62c18.7-9.7,30.35-26.36,29.3-42.39C93.7,24.89,75.64,10.53,51.12,10.53Z"/><path class="cls-2" d="M62.69,93.34h0a2.08,2.08,0,0,1-1.74-.93c-.67-1-.25-2,.21-3.08.76-1.76,1.42-3.6.51-5-.78-1.19-3.52-3.19-13-3.19-15.44,0-27.35-3-35.43-8.81S1,57.88,1,46.79A32.63,32.63,0,0,1,5.11,31a41.63,41.63,0,0,1,11-12.74A53.21,53.21,0,0,1,32,9.77,59.51,59.51,0,0,1,51.12,6.66,58.48,58.48,0,0,1,69.67,9.55a46.78,46.78,0,0,1,14.84,8A38.61,38.61,0,0,1,98.92,45.19c.61,9.2-2.42,18.62-8.75,27.24S74.78,88.13,63.86,93.06A2.85,2.85,0,0,1,62.69,93.34ZM51.12,10.53a52.83,52.83,0,0,0-32.63,10.8C9.71,28.24,4.88,37.28,4.88,46.79c0,9.78,3.58,17.33,10.63,22.43,7.4,5.35,18.55,8.07,33.15,8.07,8.74,0,14.05,1.61,16.24,4.93a7.12,7.12,0,0,1,.86,5.62c18.7-9.7,30.35-26.36,29.3-42.39C93.7,24.89,75.64,10.53,51.12,10.53Z"/><path class="cls-3" d="M41.57,55.89a10.58,10.58,0,0,0-.86-2.09,16.74,16.74,0,0,1-1.82.55,10.65,10.65,0,0,1-2.4.24,7.56,7.56,0,0,1-2.12-.29,4.73,4.73,0,0,1-1.86-1,5,5,0,0,1-1.28-2,8.29,8.29,0,0,1-.47-3c0-2.26.54-3.9,1.62-4.87a5.73,5.73,0,0,1,4-1.44l1.12,0a9.15,9.15,0,0,1,1.13.12c.38.06.78.15,1.19.26l.87.26a11.53,11.53,0,0,0,.81-2.27,9.68,9.68,0,0,0,.27-2.4c-.54-.2-1-.37-1.5-.51a12.15,12.15,0,0,0-1.61-.38,14.94,14.94,0,0,0-1.6-.17c-.56,0-1.15,0-1.75,0a12,12,0,0,0-4.65.84,9.61,9.61,0,0,0-3.39,2.32,9.86,9.86,0,0,0-2.09,3.58,15.81,15.81,0,0,0,0,9.45,9.73,9.73,0,0,0,2.11,3.55,9.26,9.26,0,0,0,3.44,2.27,13.29,13.29,0,0,0,4.8.8,25.56,25.56,0,0,0,3.3-.22A15.07,15.07,0,0,0,42,58.67,10.83,10.83,0,0,0,41.57,55.89Z"/><path class="cls-3" d="M51.45,37.12c-.63-.06-1.23-.09-1.77-.09s-1.17,0-1.79.09c-.44,0-.9.11-1.35.19V59.23c.52.07,1,.14,1.46.18s1.15.09,1.63.09,1,0,1.63-.09,1-.11,1.51-.18V37.31A13.27,13.27,0,0,0,51.45,37.12Z"/><path class="cls-3" d="M74.92,41.72A7,7,0,0,0,73.07,39a7.74,7.74,0,0,0-2.94-1.58,14.11,14.11,0,0,0-4-.53,22.7,22.7,0,0,0-3.71.35,27.93,27.93,0,0,0-3.71.9c0,.38,0,.74.06,1A9,9,0,0,0,59,40.44a6,6,0,0,0,.4,1.15c.12.27.26.56.42.86a18.37,18.37,0,0,1,2.51-.63,15.69,15.69,0,0,1,2.61-.25,11.63,11.63,0,0,1,1.66.12,5.72,5.72,0,0,1,1.56.45,3.34,3.34,0,0,1,1.27,1A3.06,3.06,0,0,1,70,44.86l0,.69H66.61a18.24,18.24,0,0,0-3.36.32A9.66,9.66,0,0,0,60.2,47,6.42,6.42,0,0,0,58,49a5.85,5.85,0,0,0-.83,3.25,7.65,7.65,0,0,0,.71,3.47A5.84,5.84,0,0,0,59.84,58a8.85,8.85,0,0,0,3.1,1.26,19.4,19.4,0,0,0,4.12.41,24.9,24.9,0,0,0,5-.48c1.37-.28,2.57-.56,3.58-.84V45.79A11.11,11.11,0,0,0,74.92,41.72ZM70,55l-.49.12a10.29,10.29,0,0,1-1.2.19,11.26,11.26,0,0,1-1.24.09,10.59,10.59,0,0,1-1.35-.09,5.27,5.27,0,0,1-1.47-.41A3.24,3.24,0,0,1,63,54a2.86,2.86,0,0,1-.54-1.8,2.75,2.75,0,0,1,1.38-2.42,5.53,5.53,0,0,1,3-.77H70Z"/></svg>