<svg id="Layer_1" data-name="Layer 1" xmlns="http://www.w3.org/2000/svg" viewBox="0 0 100 100"><defs><style>.cls-1{fill:#fff;}</style></defs><title>icon_transporte</title><polygon class="cls-1" points="46.66 45.39 45.13 44.36 44.47 45.58 42.92 43.9 42.39 44.93 41.2 43.75 40.72 44.55 38.36 37.63 44.53 39.14 46.66 45.39"/><polygon class="cls-1" points="17.93 51.4 18.73 49.82 20.05 50.41 20.51 48.33 21.59 48.85 22.01 47.33 22.91 47.7 21.11 41.19 16.3 45.52 17.93 51.4"/><path class="cls-1" d="M30.23,51.67a.52.52,0,0,0-.83-.22c-1.07.95-5.36,4.63-5.54,4.79a.85.85,0,0,0-.18.87c.41,1.35,1.54,5.05,1.62,5.3s.35.33.63.09l5.57-4.6a.86.86,0,0,0,.38-1Zm-5.86,6.15a.4.4,0,0,1,0-.57l4.92-4.2a.4.4,0,0,1,.52.61l-4.92,4.2a.4.4,0,0,1-.26.1A.4.4,0,0,1,24.38,57.83Zm.5,1.53a.4.4,0,0,1,0-.56l4.92-4.2a.4.4,0,1,1,.52.61l-4.92,4.2a.4.4,0,0,1-.56,0Zm5.93-2.68-4.92,4.2a.4.4,0,1,1-.52-.61l4.92-4.2a.4.4,0,1,1,.52.61Z"/><path class="cls-1" d="M17,75.49a4.37,4.37,0,0,0,2.67,1.73c.24.06.57.11.86.15,1.12.16,10.57,1.37,15.63,2h0l.36-.26-.32,0c-4.9-.63-14-1.8-15.12-2-1.49-.22-2.33-1.2-.89-2.36l14.4-11.69a5.41,5.41,0,0,1,4.87-1.18L51.8,64.05l.67-.84L39.81,61c-2.44-.43-3.13-1.15-3.6-2.63L30,39c-.5-1.56.24-2.57,2.36-2.13.76.15,3.27.76,6.2,1.46l2.13,6.23.48-.8,1.2,1.18.52-1,1.55,1.68.66-1.22,1.52,1-1.9-5.57,3.86.93a4.58,4.58,0,0,1,3,2.95c.35,1,3.08,9.5,4.61,14.45l.41-.58c-1.66-5.3-4.21-13.21-4.56-14.25a4.84,4.84,0,0,0-3.22-3.12l-4.38-1.06h0l-2.22-.54L39.79,38l-1.43-.35h0c-3.13-.76-5.82-1.4-6.63-1.57a4.92,4.92,0,0,0-.91-.1c-2.84-.3-4.35.56-5,1.08a2,2,0,0,0-.32.23l-4.41,3.93v0L16.82,45l-5.89,5.25a3.39,3.39,0,0,0-.72,3.43c1.63,5.37,6.1,20,6.43,21A3.35,3.35,0,0,0,17,75.49Zm-5.5-24.93,5-4.43,1.45,5.26.81-1.57,1.31.59.47-2.09,1.08.52L22,47.33l.9.37-1.62-5.87,4.11-3.67a2,2,0,0,1,3.15.82l6.26,19.64c.56,1.77-.15,2.81-1.44,3.88l-14,11.7c-1.07.89-2,.79-2.4-.36-.31-.94-4.57-14.91-6.13-20A3.23,3.23,0,0,1,11.49,50.56Z"/><path class="cls-1" d="M89.94,12.68c-.07-1.45-.83-2-2.29-.82C81.36,17.16,58,36.43,57.14,37.33a1.36,1.36,0,0,0,.66,2.38l9,2.84c-16.93,32-42.21,50.57-53.12,41,15.14,14.59,44.64-2.22,68-35.17,0,0,4.41,2.1,5.44,2.46a1.92,1.92,0,0,0,2.52-1.73C89.74,48,90,14.13,89.94,12.68Z"/><path class="cls-1" d="M15.63,72.83l-2.19-7.16c-4,5.13-3.51,14.08.26,17.83,0,0,3.5,3.31,7.31,2.93C16.79,85.09,13,79,15.63,72.83Z"/></svg>